<mxfile host="app.diagrams.net" modified="2024-05-14T07:33:55.478Z" agent="Mozilla/5.0 (Windows NT 10.0; Win64; x64) AppleWebKit/537.36 (KHTML, like Gecko) Chrome/124.0.0.0 Safari/537.36" etag="cBZ0cAqOu-QdQQfaGAWC" version="24.4.0" type="github">
  <diagram name="Page-1" id="Y9qIgjf2RDZ42tH1ypnY">
    <mxGraphModel dx="4480" dy="1872" grid="1" gridSize="10" guides="1" tooltips="1" connect="1" arrows="1" fold="1" page="1" pageScale="1" pageWidth="3300" pageHeight="4681" background="none" math="0" shadow="0">
      <root>
        <mxCell id="0" />
        <mxCell id="1" parent="0" />
        <mxCell id="7C17oXnh3V5a_mMupnRN-2" value="&lt;b&gt;User&lt;/b&gt;" style="whiteSpace=wrap;html=1;align=center;" parent="1" vertex="1">
          <mxGeometry x="1470" y="630" width="110" height="50" as="geometry" />
        </mxCell>
        <mxCell id="7C17oXnh3V5a_mMupnRN-3" value="Post" style="whiteSpace=wrap;html=1;align=center;" parent="1" vertex="1">
          <mxGeometry x="2140" y="640" width="100" height="40" as="geometry" />
        </mxCell>
        <mxCell id="9oTjwRKEW8xBZfcY-nuD-1" value="publish" style="shape=rhombus;perimeter=rhombusPerimeter;whiteSpace=wrap;html=1;align=center;" vertex="1" parent="1">
          <mxGeometry x="1790" y="630" width="120" height="60" as="geometry" />
        </mxCell>
        <mxCell id="9oTjwRKEW8xBZfcY-nuD-12" value="" style="edgeStyle=entityRelationEdgeStyle;fontSize=12;html=1;endArrow=ERone;endFill=1;rounded=0;entryX=1;entryY=0.5;entryDx=0;entryDy=0;exitX=0;exitY=0.5;exitDx=0;exitDy=0;" edge="1" parent="1" source="9oTjwRKEW8xBZfcY-nuD-1" target="7C17oXnh3V5a_mMupnRN-2">
          <mxGeometry width="100" height="100" relative="1" as="geometry">
            <mxPoint x="1670" y="850" as="sourcePoint" />
            <mxPoint x="1830" y="690" as="targetPoint" />
          </mxGeometry>
        </mxCell>
        <mxCell id="9oTjwRKEW8xBZfcY-nuD-13" value="" style="edgeStyle=entityRelationEdgeStyle;fontSize=12;html=1;endArrow=ERmany;rounded=0;exitX=1;exitY=0.5;exitDx=0;exitDy=0;" edge="1" parent="1" source="9oTjwRKEW8xBZfcY-nuD-1" target="7C17oXnh3V5a_mMupnRN-3">
          <mxGeometry width="100" height="100" relative="1" as="geometry">
            <mxPoint x="1730" y="790" as="sourcePoint" />
            <mxPoint x="1830" y="690" as="targetPoint" />
          </mxGeometry>
        </mxCell>
        <mxCell id="9oTjwRKEW8xBZfcY-nuD-14" value="Messages" style="whiteSpace=wrap;html=1;align=center;" vertex="1" parent="1">
          <mxGeometry x="2120" y="380" width="100" height="40" as="geometry" />
        </mxCell>
        <mxCell id="9oTjwRKEW8xBZfcY-nuD-15" value="chats using" style="shape=rhombus;perimeter=rhombusPerimeter;whiteSpace=wrap;html=1;align=center;" vertex="1" parent="1">
          <mxGeometry x="1850" y="370" width="120" height="60" as="geometry" />
        </mxCell>
        <mxCell id="9oTjwRKEW8xBZfcY-nuD-17" value="" style="edgeStyle=entityRelationEdgeStyle;fontSize=12;html=1;endArrow=ERmany;rounded=0;entryX=0;entryY=0.5;entryDx=0;entryDy=0;exitX=1;exitY=0.5;exitDx=0;exitDy=0;" edge="1" parent="1" source="9oTjwRKEW8xBZfcY-nuD-15" target="9oTjwRKEW8xBZfcY-nuD-14">
          <mxGeometry width="100" height="100" relative="1" as="geometry">
            <mxPoint x="1730" y="650" as="sourcePoint" />
            <mxPoint x="1830" y="550" as="targetPoint" />
          </mxGeometry>
        </mxCell>
        <mxCell id="9oTjwRKEW8xBZfcY-nuD-23" value="" style="edgeStyle=entityRelationEdgeStyle;fontSize=12;html=1;endArrow=ERmany;rounded=0;entryX=1;entryY=0.25;entryDx=0;entryDy=0;" edge="1" parent="1" source="9oTjwRKEW8xBZfcY-nuD-15" target="7C17oXnh3V5a_mMupnRN-2">
          <mxGeometry width="100" height="100" relative="1" as="geometry">
            <mxPoint x="1700" y="420" as="sourcePoint" />
            <mxPoint x="1720" y="450" as="targetPoint" />
          </mxGeometry>
        </mxCell>
        <mxCell id="9oTjwRKEW8xBZfcY-nuD-24" value="Hashtag" style="whiteSpace=wrap;html=1;align=center;" vertex="1" parent="1">
          <mxGeometry x="2610" y="390" width="100" height="40" as="geometry" />
        </mxCell>
        <mxCell id="9oTjwRKEW8xBZfcY-nuD-25" value="has" style="shape=rhombus;perimeter=rhombusPerimeter;whiteSpace=wrap;html=1;align=center;" vertex="1" parent="1">
          <mxGeometry x="2380" y="380" width="120" height="60" as="geometry" />
        </mxCell>
        <mxCell id="9oTjwRKEW8xBZfcY-nuD-26" value="" style="edgeStyle=entityRelationEdgeStyle;fontSize=12;html=1;endArrow=ERmany;rounded=0;entryX=1;entryY=0.5;entryDx=0;entryDy=0;exitX=0;exitY=0.5;exitDx=0;exitDy=0;" edge="1" parent="1" source="9oTjwRKEW8xBZfcY-nuD-25" target="7C17oXnh3V5a_mMupnRN-3">
          <mxGeometry width="100" height="100" relative="1" as="geometry">
            <mxPoint x="2140" y="640" as="sourcePoint" />
            <mxPoint x="2240" y="540" as="targetPoint" />
          </mxGeometry>
        </mxCell>
        <mxCell id="9oTjwRKEW8xBZfcY-nuD-27" value="" style="edgeStyle=entityRelationEdgeStyle;fontSize=12;html=1;endArrow=ERmany;rounded=0;entryX=0;entryY=0.5;entryDx=0;entryDy=0;exitX=1;exitY=0.5;exitDx=0;exitDy=0;" edge="1" parent="1" source="9oTjwRKEW8xBZfcY-nuD-25" target="9oTjwRKEW8xBZfcY-nuD-24">
          <mxGeometry width="100" height="100" relative="1" as="geometry">
            <mxPoint x="2140" y="590" as="sourcePoint" />
            <mxPoint x="2590" y="380" as="targetPoint" />
            <Array as="points">
              <mxPoint x="2440" y="460" />
            </Array>
          </mxGeometry>
        </mxCell>
        <mxCell id="9oTjwRKEW8xBZfcY-nuD-28" value="Like" style="whiteSpace=wrap;html=1;align=center;" vertex="1" parent="1">
          <mxGeometry x="2750" y="650" width="100" height="40" as="geometry" />
        </mxCell>
        <mxCell id="9oTjwRKEW8xBZfcY-nuD-30" value="has" style="shape=rhombus;perimeter=rhombusPerimeter;whiteSpace=wrap;html=1;align=center;" vertex="1" parent="1">
          <mxGeometry x="2420" y="640" width="120" height="60" as="geometry" />
        </mxCell>
        <mxCell id="9oTjwRKEW8xBZfcY-nuD-32" value="" style="edgeStyle=entityRelationEdgeStyle;fontSize=12;html=1;endArrow=ERone;endFill=1;rounded=0;exitX=1;exitY=0.75;exitDx=0;exitDy=0;entryX=0;entryY=0.5;entryDx=0;entryDy=0;" edge="1" parent="1" source="7C17oXnh3V5a_mMupnRN-3" target="9oTjwRKEW8xBZfcY-nuD-30">
          <mxGeometry width="100" height="100" relative="1" as="geometry">
            <mxPoint x="2420" y="640" as="sourcePoint" />
            <mxPoint x="2520" y="540" as="targetPoint" />
          </mxGeometry>
        </mxCell>
        <mxCell id="9oTjwRKEW8xBZfcY-nuD-33" value="" style="edgeStyle=entityRelationEdgeStyle;fontSize=12;html=1;endArrow=ERmany;rounded=0;entryX=0;entryY=0.5;entryDx=0;entryDy=0;exitX=1;exitY=0.5;exitDx=0;exitDy=0;" edge="1" parent="1" source="9oTjwRKEW8xBZfcY-nuD-30" target="9oTjwRKEW8xBZfcY-nuD-28">
          <mxGeometry width="100" height="100" relative="1" as="geometry">
            <mxPoint x="2420" y="640" as="sourcePoint" />
            <mxPoint x="2520" y="540" as="targetPoint" />
          </mxGeometry>
        </mxCell>
        <mxCell id="9oTjwRKEW8xBZfcY-nuD-34" value="Notification" style="whiteSpace=wrap;html=1;align=center;" vertex="1" parent="1">
          <mxGeometry x="2510" y="1040" width="100" height="40" as="geometry" />
        </mxCell>
        <mxCell id="9oTjwRKEW8xBZfcY-nuD-35" value="Comment" style="whiteSpace=wrap;html=1;align=center;" vertex="1" parent="1">
          <mxGeometry x="2000" y="1040" width="100" height="40" as="geometry" />
        </mxCell>
        <mxCell id="9oTjwRKEW8xBZfcY-nuD-36" value="triggers" style="shape=rhombus;perimeter=rhombusPerimeter;whiteSpace=wrap;html=1;align=center;" vertex="1" parent="1">
          <mxGeometry x="2250" y="1030" width="120" height="60" as="geometry" />
        </mxCell>
        <mxCell id="9oTjwRKEW8xBZfcY-nuD-37" value="" style="edgeStyle=entityRelationEdgeStyle;fontSize=12;html=1;endArrow=ERone;endFill=1;rounded=0;entryX=1;entryY=0.5;entryDx=0;entryDy=0;" edge="1" parent="1" source="9oTjwRKEW8xBZfcY-nuD-36" target="9oTjwRKEW8xBZfcY-nuD-35">
          <mxGeometry width="100" height="100" relative="1" as="geometry">
            <mxPoint x="2260" y="920" as="sourcePoint" />
            <mxPoint x="2360" y="820" as="targetPoint" />
          </mxGeometry>
        </mxCell>
        <mxCell id="9oTjwRKEW8xBZfcY-nuD-38" value="" style="edgeStyle=entityRelationEdgeStyle;fontSize=12;html=1;endArrow=ERone;endFill=1;rounded=0;entryX=0;entryY=0.5;entryDx=0;entryDy=0;exitX=1;exitY=0.5;exitDx=0;exitDy=0;" edge="1" parent="1" source="9oTjwRKEW8xBZfcY-nuD-36" target="9oTjwRKEW8xBZfcY-nuD-34">
          <mxGeometry width="100" height="100" relative="1" as="geometry">
            <mxPoint x="2260" y="920" as="sourcePoint" />
            <mxPoint x="2360" y="820" as="targetPoint" />
          </mxGeometry>
        </mxCell>
        <mxCell id="9oTjwRKEW8xBZfcY-nuD-39" value="Relationship" style="shape=rhombus;perimeter=rhombusPerimeter;whiteSpace=wrap;html=1;align=center;" vertex="1" parent="1">
          <mxGeometry x="2850" y="910" width="120" height="60" as="geometry" />
        </mxCell>
        <mxCell id="9oTjwRKEW8xBZfcY-nuD-40" value="" style="edgeStyle=entityRelationEdgeStyle;fontSize=12;html=1;endArrow=ERone;endFill=1;rounded=0;entryX=1;entryY=0.75;entryDx=0;entryDy=0;exitX=0.5;exitY=0;exitDx=0;exitDy=0;" edge="1" parent="1" source="9oTjwRKEW8xBZfcY-nuD-39" target="9oTjwRKEW8xBZfcY-nuD-28">
          <mxGeometry width="100" height="100" relative="1" as="geometry">
            <mxPoint x="2630" y="920" as="sourcePoint" />
            <mxPoint x="2730" y="820" as="targetPoint" />
            <Array as="points">
              <mxPoint x="2910" y="840" />
              <mxPoint x="2940" y="850" />
              <mxPoint x="2860" y="840" />
            </Array>
          </mxGeometry>
        </mxCell>
        <mxCell id="9oTjwRKEW8xBZfcY-nuD-41" value="" style="edgeStyle=entityRelationEdgeStyle;fontSize=12;html=1;endArrow=ERone;endFill=1;rounded=0;entryX=1;entryY=0.5;entryDx=0;entryDy=0;exitX=0;exitY=0.5;exitDx=0;exitDy=0;" edge="1" parent="1" source="9oTjwRKEW8xBZfcY-nuD-39" target="9oTjwRKEW8xBZfcY-nuD-34">
          <mxGeometry width="100" height="100" relative="1" as="geometry">
            <mxPoint x="2630" y="920" as="sourcePoint" />
            <mxPoint x="2730" y="820" as="targetPoint" />
          </mxGeometry>
        </mxCell>
        <mxCell id="9oTjwRKEW8xBZfcY-nuD-42" value="has" style="shape=rhombus;perimeter=rhombusPerimeter;whiteSpace=wrap;html=1;align=center;" vertex="1" parent="1">
          <mxGeometry x="1880" y="850" width="120" height="60" as="geometry" />
        </mxCell>
        <mxCell id="9oTjwRKEW8xBZfcY-nuD-43" value="" style="edgeStyle=entityRelationEdgeStyle;fontSize=12;html=1;endArrow=ERone;endFill=1;rounded=0;entryX=0;entryY=0.75;entryDx=0;entryDy=0;exitX=0.5;exitY=0;exitDx=0;exitDy=0;" edge="1" parent="1" source="9oTjwRKEW8xBZfcY-nuD-42" target="7C17oXnh3V5a_mMupnRN-3">
          <mxGeometry width="100" height="100" relative="1" as="geometry">
            <mxPoint x="2240" y="930" as="sourcePoint" />
            <mxPoint x="2120" y="680" as="targetPoint" />
            <Array as="points">
              <mxPoint x="2100" y="840" />
              <mxPoint x="2140" y="770" />
            </Array>
          </mxGeometry>
        </mxCell>
        <mxCell id="9oTjwRKEW8xBZfcY-nuD-44" value="" style="edgeStyle=entityRelationEdgeStyle;fontSize=12;html=1;endArrow=ERmany;rounded=0;exitX=0.5;exitY=1;exitDx=0;exitDy=0;" edge="1" parent="1" source="9oTjwRKEW8xBZfcY-nuD-42">
          <mxGeometry width="100" height="100" relative="1" as="geometry">
            <mxPoint x="1790" y="880" as="sourcePoint" />
            <mxPoint x="2000" y="1050" as="targetPoint" />
          </mxGeometry>
        </mxCell>
        <mxCell id="9oTjwRKEW8xBZfcY-nuD-45" value="" style="edgeStyle=entityRelationEdgeStyle;fontSize=12;html=1;endArrow=ERone;endFill=1;rounded=0;entryX=1;entryY=0.75;entryDx=0;entryDy=0;exitX=0;exitY=0.5;exitDx=0;exitDy=0;" edge="1" parent="1" source="9oTjwRKEW8xBZfcY-nuD-46" target="7C17oXnh3V5a_mMupnRN-2">
          <mxGeometry width="100" height="100" relative="1" as="geometry">
            <mxPoint x="1730" y="920" as="sourcePoint" />
            <mxPoint x="1490" y="720" as="targetPoint" />
            <Array as="points">
              <mxPoint x="1510" y="730" />
            </Array>
          </mxGeometry>
        </mxCell>
        <mxCell id="9oTjwRKEW8xBZfcY-nuD-46" value="receives" style="shape=rhombus;perimeter=rhombusPerimeter;whiteSpace=wrap;html=1;align=center;" vertex="1" parent="1">
          <mxGeometry x="2080" y="800" width="120" height="60" as="geometry" />
        </mxCell>
        <mxCell id="9oTjwRKEW8xBZfcY-nuD-48" value="" style="edgeStyle=entityRelationEdgeStyle;fontSize=12;html=1;endArrow=ERmany;rounded=0;entryX=0;entryY=0.25;entryDx=0;entryDy=0;exitX=1;exitY=0.5;exitDx=0;exitDy=0;" edge="1" parent="1" source="9oTjwRKEW8xBZfcY-nuD-46" target="9oTjwRKEW8xBZfcY-nuD-34">
          <mxGeometry width="100" height="100" relative="1" as="geometry">
            <mxPoint x="2040" y="900" as="sourcePoint" />
            <mxPoint x="2140" y="800" as="targetPoint" />
          </mxGeometry>
        </mxCell>
        <mxCell id="9oTjwRKEW8xBZfcY-nuD-49" value="writes" style="shape=rhombus;perimeter=rhombusPerimeter;whiteSpace=wrap;html=1;align=center;" vertex="1" parent="1">
          <mxGeometry x="1350" y="890" width="120" height="60" as="geometry" />
        </mxCell>
        <mxCell id="9oTjwRKEW8xBZfcY-nuD-50" value="" style="edgeStyle=entityRelationEdgeStyle;fontSize=12;html=1;endArrow=ERone;endFill=1;rounded=0;exitX=0.5;exitY=0;exitDx=0;exitDy=0;" edge="1" parent="1" source="9oTjwRKEW8xBZfcY-nuD-49">
          <mxGeometry width="100" height="100" relative="1" as="geometry">
            <mxPoint x="1310" y="910" as="sourcePoint" />
            <mxPoint x="1470" y="670" as="targetPoint" />
            <Array as="points">
              <mxPoint x="1220" y="930.88" />
              <mxPoint x="1310" y="790.88" />
              <mxPoint x="1210" y="740.88" />
              <mxPoint x="1230" y="870.88" />
              <mxPoint x="1220" y="740.88" />
              <mxPoint x="1220" y="810.88" />
              <mxPoint x="1270" y="810.88" />
            </Array>
          </mxGeometry>
        </mxCell>
        <mxCell id="9oTjwRKEW8xBZfcY-nuD-51" value="" style="edgeStyle=entityRelationEdgeStyle;fontSize=12;html=1;endArrow=ERmany;rounded=0;exitX=1;exitY=0.5;exitDx=0;exitDy=0;" edge="1" parent="1" source="9oTjwRKEW8xBZfcY-nuD-49" target="9oTjwRKEW8xBZfcY-nuD-35">
          <mxGeometry width="100" height="100" relative="1" as="geometry">
            <mxPoint x="1480" y="960" as="sourcePoint" />
            <mxPoint x="2000" y="1050" as="targetPoint" />
          </mxGeometry>
        </mxCell>
        <mxCell id="9oTjwRKEW8xBZfcY-nuD-54" value="Reacts with" style="shape=rhombus;perimeter=rhombusPerimeter;whiteSpace=wrap;html=1;align=center;" vertex="1" parent="1">
          <mxGeometry x="1970" y="520" width="120" height="60" as="geometry" />
        </mxCell>
        <mxCell id="9oTjwRKEW8xBZfcY-nuD-56" value="" style="edgeStyle=entityRelationEdgeStyle;fontSize=12;html=1;endArrow=ERmany;rounded=0;exitX=0;exitY=0.5;exitDx=0;exitDy=0;entryX=1;entryY=0;entryDx=0;entryDy=0;" edge="1" parent="1" source="9oTjwRKEW8xBZfcY-nuD-54" target="7C17oXnh3V5a_mMupnRN-2">
          <mxGeometry width="100" height="100" relative="1" as="geometry">
            <mxPoint x="2570" y="-10" as="sourcePoint" />
            <mxPoint x="1440" y="650" as="targetPoint" />
            <Array as="points">
              <mxPoint x="1510" y="170" />
              <mxPoint x="2030" y="320" />
              <mxPoint x="2010" y="370" />
              <mxPoint x="1490" y="170" />
            </Array>
          </mxGeometry>
        </mxCell>
        <mxCell id="9oTjwRKEW8xBZfcY-nuD-57" value="" style="edgeStyle=entityRelationEdgeStyle;fontSize=12;html=1;endArrow=ERone;endFill=1;rounded=0;exitX=1;exitY=0.5;exitDx=0;exitDy=0;entryX=0;entryY=0.25;entryDx=0;entryDy=0;" edge="1" parent="1" source="9oTjwRKEW8xBZfcY-nuD-54" target="9oTjwRKEW8xBZfcY-nuD-28">
          <mxGeometry width="100" height="100" relative="1" as="geometry">
            <mxPoint x="2790" y="160" as="sourcePoint" />
            <mxPoint x="2750" y="650" as="targetPoint" />
            <Array as="points">
              <mxPoint x="2750" y="670" />
            </Array>
          </mxGeometry>
        </mxCell>
        <mxCell id="9oTjwRKEW8xBZfcY-nuD-61" value="User&#39;s data" style="whiteSpace=wrap;html=1;align=center;" vertex="1" parent="1">
          <mxGeometry x="1100" y="760" width="100" height="40" as="geometry" />
        </mxCell>
        <mxCell id="9oTjwRKEW8xBZfcY-nuD-62" value="stores" style="shape=rhombus;perimeter=rhombusPerimeter;whiteSpace=wrap;html=1;align=center;" vertex="1" parent="1">
          <mxGeometry x="1260" y="650" width="120" height="60" as="geometry" />
        </mxCell>
        <mxCell id="9oTjwRKEW8xBZfcY-nuD-63" value="" style="edgeStyle=entityRelationEdgeStyle;fontSize=12;html=1;endArrow=ERone;endFill=1;rounded=0;entryX=0;entryY=0.5;entryDx=0;entryDy=0;exitX=1;exitY=0.5;exitDx=0;exitDy=0;" edge="1" parent="1" source="9oTjwRKEW8xBZfcY-nuD-62" target="7C17oXnh3V5a_mMupnRN-2">
          <mxGeometry width="100" height="100" relative="1" as="geometry">
            <mxPoint x="1360" y="750" as="sourcePoint" />
            <mxPoint x="1460" y="650" as="targetPoint" />
          </mxGeometry>
        </mxCell>
        <mxCell id="9oTjwRKEW8xBZfcY-nuD-64" value="" style="edgeStyle=entityRelationEdgeStyle;fontSize=12;html=1;endArrow=ERmany;rounded=0;exitX=0;exitY=0.5;exitDx=0;exitDy=0;" edge="1" parent="1" source="9oTjwRKEW8xBZfcY-nuD-62" target="9oTjwRKEW8xBZfcY-nuD-61">
          <mxGeometry width="100" height="100" relative="1" as="geometry">
            <mxPoint x="1280" y="890" as="sourcePoint" />
            <mxPoint x="1223" y="776" as="targetPoint" />
          </mxGeometry>
        </mxCell>
        <mxCell id="9oTjwRKEW8xBZfcY-nuD-65" value="friendship" style="shape=rhombus;perimeter=rhombusPerimeter;whiteSpace=wrap;html=1;align=center;" vertex="1" parent="1">
          <mxGeometry x="1490" y="730" width="120" height="60" as="geometry" />
        </mxCell>
        <mxCell id="9oTjwRKEW8xBZfcY-nuD-67" value="" style="edgeStyle=entityRelationEdgeStyle;fontSize=12;html=1;endArrow=ERmany;rounded=0;exitX=0;exitY=0.5;exitDx=0;exitDy=0;" edge="1" parent="1" source="9oTjwRKEW8xBZfcY-nuD-65">
          <mxGeometry width="100" height="100" relative="1" as="geometry">
            <mxPoint x="1770" y="790" as="sourcePoint" />
            <mxPoint x="1470" y="670" as="targetPoint" />
          </mxGeometry>
        </mxCell>
        <mxCell id="9oTjwRKEW8xBZfcY-nuD-68" value="" style="edgeStyle=entityRelationEdgeStyle;fontSize=12;html=1;endArrow=ERmany;rounded=0;entryX=1;entryY=1;entryDx=0;entryDy=0;exitX=1;exitY=0.5;exitDx=0;exitDy=0;" edge="1" parent="1" source="9oTjwRKEW8xBZfcY-nuD-65" target="7C17oXnh3V5a_mMupnRN-2">
          <mxGeometry width="100" height="100" relative="1" as="geometry">
            <mxPoint x="1710" y="730" as="sourcePoint" />
            <mxPoint x="1810" y="630" as="targetPoint" />
          </mxGeometry>
        </mxCell>
        <mxCell id="9oTjwRKEW8xBZfcY-nuD-69" value="Admin/Moderator" style="whiteSpace=wrap;html=1;align=center;" vertex="1" parent="1">
          <mxGeometry x="1190" y="1170" width="100" height="40" as="geometry" />
        </mxCell>
        <mxCell id="9oTjwRKEW8xBZfcY-nuD-70" value="Monitors" style="shape=rhombus;perimeter=rhombusPerimeter;whiteSpace=wrap;html=1;align=center;" vertex="1" parent="1">
          <mxGeometry x="1110" y="960" width="120" height="60" as="geometry" />
        </mxCell>
        <mxCell id="9oTjwRKEW8xBZfcY-nuD-71" value="" style="edgeStyle=entityRelationEdgeStyle;fontSize=12;html=1;endArrow=ERone;endFill=1;rounded=0;exitX=0;exitY=0.5;exitDx=0;exitDy=0;" edge="1" parent="1" source="9oTjwRKEW8xBZfcY-nuD-70" target="9oTjwRKEW8xBZfcY-nuD-69">
          <mxGeometry width="100" height="100" relative="1" as="geometry">
            <mxPoint x="1290" y="1060" as="sourcePoint" />
            <mxPoint x="1490" y="1300" as="targetPoint" />
          </mxGeometry>
        </mxCell>
        <mxCell id="9oTjwRKEW8xBZfcY-nuD-72" value="" style="edgeStyle=entityRelationEdgeStyle;fontSize=12;html=1;endArrow=ERmany;rounded=0;exitX=1;exitY=0.5;exitDx=0;exitDy=0;" edge="1" parent="1" source="9oTjwRKEW8xBZfcY-nuD-70">
          <mxGeometry width="100" height="100" relative="1" as="geometry">
            <mxPoint x="1630" y="950" as="sourcePoint" />
            <mxPoint x="1470" y="660" as="targetPoint" />
          </mxGeometry>
        </mxCell>
        <mxCell id="9oTjwRKEW8xBZfcY-nuD-73" value="Monitors" style="shape=rhombus;perimeter=rhombusPerimeter;whiteSpace=wrap;html=1;align=center;" vertex="1" parent="1">
          <mxGeometry x="1630" y="820" width="120" height="60" as="geometry" />
        </mxCell>
        <mxCell id="9oTjwRKEW8xBZfcY-nuD-74" value="" style="edgeStyle=entityRelationEdgeStyle;fontSize=12;html=1;endArrow=ERone;endFill=1;rounded=0;entryX=1;entryY=0.5;entryDx=0;entryDy=0;exitX=0;exitY=0.5;exitDx=0;exitDy=0;" edge="1" parent="1" source="9oTjwRKEW8xBZfcY-nuD-73" target="9oTjwRKEW8xBZfcY-nuD-69">
          <mxGeometry width="100" height="100" relative="1" as="geometry">
            <mxPoint x="1630" y="920" as="sourcePoint" />
            <mxPoint x="1730" y="820" as="targetPoint" />
          </mxGeometry>
        </mxCell>
        <mxCell id="9oTjwRKEW8xBZfcY-nuD-75" value="" style="edgeStyle=entityRelationEdgeStyle;fontSize=12;html=1;endArrow=ERmany;rounded=0;entryX=0;entryY=0.25;entryDx=0;entryDy=0;exitX=1;exitY=0.5;exitDx=0;exitDy=0;" edge="1" parent="1" source="9oTjwRKEW8xBZfcY-nuD-73" target="7C17oXnh3V5a_mMupnRN-3">
          <mxGeometry width="100" height="100" relative="1" as="geometry">
            <mxPoint x="1630" y="920" as="sourcePoint" />
            <mxPoint x="1730" y="820" as="targetPoint" />
          </mxGeometry>
        </mxCell>
        <mxCell id="9oTjwRKEW8xBZfcY-nuD-76" value="Monitors" style="shape=rhombus;perimeter=rhombusPerimeter;whiteSpace=wrap;html=1;align=center;" vertex="1" parent="1">
          <mxGeometry x="1550" y="1030" width="120" height="60" as="geometry" />
        </mxCell>
        <mxCell id="9oTjwRKEW8xBZfcY-nuD-77" value="" style="edgeStyle=entityRelationEdgeStyle;fontSize=12;html=1;endArrow=ERone;endFill=1;rounded=0;entryX=1;entryY=0.75;entryDx=0;entryDy=0;exitX=0;exitY=0.5;exitDx=0;exitDy=0;" edge="1" parent="1" source="9oTjwRKEW8xBZfcY-nuD-76" target="9oTjwRKEW8xBZfcY-nuD-69">
          <mxGeometry width="100" height="100" relative="1" as="geometry">
            <mxPoint x="1630" y="920" as="sourcePoint" />
            <mxPoint x="1730" y="820" as="targetPoint" />
          </mxGeometry>
        </mxCell>
        <mxCell id="9oTjwRKEW8xBZfcY-nuD-78" value="" style="edgeStyle=entityRelationEdgeStyle;fontSize=12;html=1;endArrow=ERmany;rounded=0;exitX=1;exitY=0.5;exitDx=0;exitDy=0;entryX=0;entryY=0.75;entryDx=0;entryDy=0;" edge="1" parent="1" source="9oTjwRKEW8xBZfcY-nuD-76" target="9oTjwRKEW8xBZfcY-nuD-35">
          <mxGeometry width="100" height="100" relative="1" as="geometry">
            <mxPoint x="1730" y="1090" as="sourcePoint" />
            <mxPoint x="1830" y="990" as="targetPoint" />
          </mxGeometry>
        </mxCell>
        <mxCell id="9oTjwRKEW8xBZfcY-nuD-81" value="Report/Inquiry" style="whiteSpace=wrap;html=1;align=center;" vertex="1" parent="1">
          <mxGeometry x="1800" y="1220" width="100" height="40" as="geometry" />
        </mxCell>
        <mxCell id="9oTjwRKEW8xBZfcY-nuD-82" value="access" style="shape=rhombus;perimeter=rhombusPerimeter;whiteSpace=wrap;html=1;align=center;" vertex="1" parent="1">
          <mxGeometry x="1420" y="1210" width="120" height="60" as="geometry" />
        </mxCell>
        <mxCell id="9oTjwRKEW8xBZfcY-nuD-83" value="" style="edgeStyle=entityRelationEdgeStyle;fontSize=12;html=1;endArrow=ERmany;rounded=0;entryX=1;entryY=0.25;entryDx=0;entryDy=0;exitX=0;exitY=0.5;exitDx=0;exitDy=0;" edge="1" parent="1" source="9oTjwRKEW8xBZfcY-nuD-82" target="9oTjwRKEW8xBZfcY-nuD-69">
          <mxGeometry width="100" height="100" relative="1" as="geometry">
            <mxPoint x="2050" y="960" as="sourcePoint" />
            <mxPoint x="2150" y="860" as="targetPoint" />
          </mxGeometry>
        </mxCell>
        <mxCell id="9oTjwRKEW8xBZfcY-nuD-84" value="" style="edgeStyle=entityRelationEdgeStyle;fontSize=12;html=1;endArrow=ERmany;rounded=0;entryX=0;entryY=0.5;entryDx=0;entryDy=0;exitX=1;exitY=0.5;exitDx=0;exitDy=0;" edge="1" parent="1" source="9oTjwRKEW8xBZfcY-nuD-82" target="9oTjwRKEW8xBZfcY-nuD-81">
          <mxGeometry width="100" height="100" relative="1" as="geometry">
            <mxPoint x="2050" y="960" as="sourcePoint" />
            <mxPoint x="2150" y="860" as="targetPoint" />
            <Array as="points">
              <mxPoint x="1800" y="1210" />
            </Array>
          </mxGeometry>
        </mxCell>
        <mxCell id="9oTjwRKEW8xBZfcY-nuD-85" value="triggers" style="shape=rhombus;perimeter=rhombusPerimeter;whiteSpace=wrap;html=1;align=center;" vertex="1" parent="1">
          <mxGeometry x="2030" y="1210" width="120" height="60" as="geometry" />
        </mxCell>
        <mxCell id="9oTjwRKEW8xBZfcY-nuD-86" value="" style="edgeStyle=entityRelationEdgeStyle;fontSize=12;html=1;endArrow=ERone;endFill=1;rounded=0;exitX=1;exitY=0.5;exitDx=0;exitDy=0;entryX=0;entryY=0.75;entryDx=0;entryDy=0;" edge="1" parent="1" source="9oTjwRKEW8xBZfcY-nuD-85" target="9oTjwRKEW8xBZfcY-nuD-34">
          <mxGeometry width="100" height="100" relative="1" as="geometry">
            <mxPoint x="2050" y="960" as="sourcePoint" />
            <mxPoint x="2499" y="1079" as="targetPoint" />
          </mxGeometry>
        </mxCell>
        <mxCell id="9oTjwRKEW8xBZfcY-nuD-87" value="" style="edgeStyle=entityRelationEdgeStyle;fontSize=12;html=1;endArrow=ERone;endFill=1;rounded=0;entryX=1;entryY=0.5;entryDx=0;entryDy=0;exitX=0;exitY=0.5;exitDx=0;exitDy=0;" edge="1" parent="1" source="9oTjwRKEW8xBZfcY-nuD-85" target="9oTjwRKEW8xBZfcY-nuD-81">
          <mxGeometry width="100" height="100" relative="1" as="geometry">
            <mxPoint x="2050" y="960" as="sourcePoint" />
            <mxPoint x="2150" y="860" as="targetPoint" />
          </mxGeometry>
        </mxCell>
        <mxCell id="9oTjwRKEW8xBZfcY-nuD-88" value="issue/report" style="shape=rhombus;perimeter=rhombusPerimeter;whiteSpace=wrap;html=1;align=center;" vertex="1" parent="1">
          <mxGeometry x="1680" y="750" width="120" height="60" as="geometry" />
        </mxCell>
        <mxCell id="9oTjwRKEW8xBZfcY-nuD-90" value="" style="endArrow=none;html=1;rounded=0;exitX=1;exitY=0.5;exitDx=0;exitDy=0;entryX=0;entryY=0.5;entryDx=0;entryDy=0;" edge="1" parent="1" source="7C17oXnh3V5a_mMupnRN-2" target="9oTjwRKEW8xBZfcY-nuD-88">
          <mxGeometry relative="1" as="geometry">
            <mxPoint x="2020" y="910" as="sourcePoint" />
            <mxPoint x="2180" y="910" as="targetPoint" />
          </mxGeometry>
        </mxCell>
        <mxCell id="9oTjwRKEW8xBZfcY-nuD-91" value="" style="endArrow=none;html=1;rounded=0;exitX=1;exitY=0.5;exitDx=0;exitDy=0;entryX=0;entryY=0.25;entryDx=0;entryDy=0;" edge="1" parent="1" source="9oTjwRKEW8xBZfcY-nuD-88" target="9oTjwRKEW8xBZfcY-nuD-81">
          <mxGeometry relative="1" as="geometry">
            <mxPoint x="2020" y="910" as="sourcePoint" />
            <mxPoint x="2180" y="910" as="targetPoint" />
          </mxGeometry>
        </mxCell>
        <mxCell id="9oTjwRKEW8xBZfcY-nuD-93" value="user_id" style="ellipse;whiteSpace=wrap;html=1;align=center;fontStyle=4;" vertex="1" parent="1">
          <mxGeometry x="1680" y="150" width="100" height="40" as="geometry" />
        </mxCell>
        <mxCell id="9oTjwRKEW8xBZfcY-nuD-96" value="" style="endArrow=none;html=1;rounded=0;exitX=0.5;exitY=1;exitDx=0;exitDy=0;entryX=0.588;entryY=0.003;entryDx=0;entryDy=0;entryPerimeter=0;" edge="1" parent="1" source="9oTjwRKEW8xBZfcY-nuD-93" target="7C17oXnh3V5a_mMupnRN-2">
          <mxGeometry relative="1" as="geometry">
            <mxPoint x="1730" y="450" as="sourcePoint" />
            <mxPoint x="1890" y="450" as="targetPoint" />
          </mxGeometry>
        </mxCell>
        <mxCell id="9oTjwRKEW8xBZfcY-nuD-97" value="name" style="ellipse;whiteSpace=wrap;html=1;align=center;" vertex="1" parent="1">
          <mxGeometry x="1610" y="110" width="100" height="40" as="geometry" />
        </mxCell>
        <mxCell id="9oTjwRKEW8xBZfcY-nuD-98" value="" style="endArrow=none;html=1;rounded=0;entryX=0.569;entryY=0.087;entryDx=0;entryDy=0;entryPerimeter=0;exitX=0.436;exitY=1.004;exitDx=0;exitDy=0;exitPerimeter=0;" edge="1" parent="1" source="9oTjwRKEW8xBZfcY-nuD-97" target="7C17oXnh3V5a_mMupnRN-2">
          <mxGeometry relative="1" as="geometry">
            <mxPoint x="1650" y="160" as="sourcePoint" />
            <mxPoint x="1890" y="370" as="targetPoint" />
          </mxGeometry>
        </mxCell>
        <mxCell id="9oTjwRKEW8xBZfcY-nuD-99" value="last_name" style="ellipse;whiteSpace=wrap;html=1;align=center;" vertex="1" parent="1">
          <mxGeometry x="1710" y="50" width="100" height="40" as="geometry" />
        </mxCell>
        <mxCell id="9oTjwRKEW8xBZfcY-nuD-100" value="first_name" style="ellipse;whiteSpace=wrap;html=1;align=center;" vertex="1" parent="1">
          <mxGeometry x="1620" y="10" width="100" height="40" as="geometry" />
        </mxCell>
        <mxCell id="9oTjwRKEW8xBZfcY-nuD-101" value="" style="endArrow=none;html=1;rounded=0;exitX=0.5;exitY=0;exitDx=0;exitDy=0;entryX=0;entryY=1;entryDx=0;entryDy=0;" edge="1" parent="1" source="9oTjwRKEW8xBZfcY-nuD-97" target="9oTjwRKEW8xBZfcY-nuD-99">
          <mxGeometry relative="1" as="geometry">
            <mxPoint x="1730" y="140" as="sourcePoint" />
            <mxPoint x="1890" y="140" as="targetPoint" />
          </mxGeometry>
        </mxCell>
        <mxCell id="9oTjwRKEW8xBZfcY-nuD-102" value="" style="endArrow=none;html=1;rounded=0;exitX=0.5;exitY=0;exitDx=0;exitDy=0;entryX=0.5;entryY=1;entryDx=0;entryDy=0;" edge="1" parent="1" source="9oTjwRKEW8xBZfcY-nuD-97" target="9oTjwRKEW8xBZfcY-nuD-100">
          <mxGeometry relative="1" as="geometry">
            <mxPoint x="1730" y="140" as="sourcePoint" />
            <mxPoint x="1890" y="140" as="targetPoint" />
          </mxGeometry>
        </mxCell>
        <mxCell id="9oTjwRKEW8xBZfcY-nuD-103" value="username" style="ellipse;whiteSpace=wrap;html=1;align=center;" vertex="1" parent="1">
          <mxGeometry x="1520" y="80" width="100" height="40" as="geometry" />
        </mxCell>
        <mxCell id="9oTjwRKEW8xBZfcY-nuD-104" value="" style="endArrow=none;html=1;rounded=0;entryX=0.5;entryY=1;entryDx=0;entryDy=0;exitX=0.588;exitY=-0.06;exitDx=0;exitDy=0;exitPerimeter=0;" edge="1" parent="1" source="7C17oXnh3V5a_mMupnRN-2" target="9oTjwRKEW8xBZfcY-nuD-103">
          <mxGeometry relative="1" as="geometry">
            <mxPoint x="1730" y="320" as="sourcePoint" />
            <mxPoint x="1890" y="320" as="targetPoint" />
          </mxGeometry>
        </mxCell>
        <mxCell id="9oTjwRKEW8xBZfcY-nuD-105" value="email" style="ellipse;whiteSpace=wrap;html=1;align=center;" vertex="1" parent="1">
          <mxGeometry x="1410" y="70" width="100" height="40" as="geometry" />
        </mxCell>
        <mxCell id="9oTjwRKEW8xBZfcY-nuD-106" value="" style="endArrow=none;html=1;rounded=0;exitX=0.5;exitY=1;exitDx=0;exitDy=0;entryX=0.578;entryY=-0.018;entryDx=0;entryDy=0;entryPerimeter=0;" edge="1" parent="1" source="9oTjwRKEW8xBZfcY-nuD-105" target="7C17oXnh3V5a_mMupnRN-2">
          <mxGeometry relative="1" as="geometry">
            <mxPoint x="1730" y="300" as="sourcePoint" />
            <mxPoint x="1890" y="300" as="targetPoint" />
          </mxGeometry>
        </mxCell>
        <mxCell id="9oTjwRKEW8xBZfcY-nuD-107" value="phone_no" style="ellipse;whiteSpace=wrap;html=1;align=center;" vertex="1" parent="1">
          <mxGeometry x="1300" y="70" width="100" height="40" as="geometry" />
        </mxCell>
        <mxCell id="9oTjwRKEW8xBZfcY-nuD-108" value="password_hashed" style="ellipse;whiteSpace=wrap;html=1;align=center;" vertex="1" parent="1">
          <mxGeometry x="1190" y="80" width="100" height="40" as="geometry" />
        </mxCell>
        <mxCell id="9oTjwRKEW8xBZfcY-nuD-109" value="" style="endArrow=none;html=1;rounded=0;exitX=0.589;exitY=1.004;exitDx=0;exitDy=0;exitPerimeter=0;entryX=0.578;entryY=-0.039;entryDx=0;entryDy=0;entryPerimeter=0;" edge="1" parent="1" source="9oTjwRKEW8xBZfcY-nuD-107" target="7C17oXnh3V5a_mMupnRN-2">
          <mxGeometry relative="1" as="geometry">
            <mxPoint x="1610" y="290" as="sourcePoint" />
            <mxPoint x="1770" y="290" as="targetPoint" />
          </mxGeometry>
        </mxCell>
        <mxCell id="9oTjwRKEW8xBZfcY-nuD-110" value="" style="endArrow=none;html=1;rounded=0;exitX=0.5;exitY=1;exitDx=0;exitDy=0;entryX=0.569;entryY=0.045;entryDx=0;entryDy=0;entryPerimeter=0;" edge="1" parent="1" source="9oTjwRKEW8xBZfcY-nuD-108" target="7C17oXnh3V5a_mMupnRN-2">
          <mxGeometry relative="1" as="geometry">
            <mxPoint x="1610" y="160" as="sourcePoint" />
            <mxPoint x="1770" y="160" as="targetPoint" />
          </mxGeometry>
        </mxCell>
        <mxCell id="9oTjwRKEW8xBZfcY-nuD-111" value="profile_picture_url" style="ellipse;whiteSpace=wrap;html=1;align=center;" vertex="1" parent="1">
          <mxGeometry x="1080" y="110" width="100" height="40" as="geometry" />
        </mxCell>
        <mxCell id="9oTjwRKEW8xBZfcY-nuD-112" value="bio" style="ellipse;whiteSpace=wrap;html=1;align=center;" vertex="1" parent="1">
          <mxGeometry x="990" y="150" width="100" height="40" as="geometry" />
        </mxCell>
        <mxCell id="9oTjwRKEW8xBZfcY-nuD-113" value="marital_status" style="ellipse;whiteSpace=wrap;html=1;align=center;" vertex="1" parent="1">
          <mxGeometry x="910" y="190" width="100" height="40" as="geometry" />
        </mxCell>
        <mxCell id="9oTjwRKEW8xBZfcY-nuD-114" value="gender" style="ellipse;whiteSpace=wrap;html=1;align=center;" vertex="1" parent="1">
          <mxGeometry x="840" y="230" width="100" height="40" as="geometry" />
        </mxCell>
        <mxCell id="9oTjwRKEW8xBZfcY-nuD-115" value="date_of_birth" style="ellipse;whiteSpace=wrap;html=1;align=center;" vertex="1" parent="1">
          <mxGeometry x="780" y="270" width="100" height="40" as="geometry" />
        </mxCell>
        <mxCell id="9oTjwRKEW8xBZfcY-nuD-116" value="created_at" style="ellipse;whiteSpace=wrap;html=1;align=center;" vertex="1" parent="1">
          <mxGeometry x="740" y="320" width="100" height="40" as="geometry" />
        </mxCell>
        <mxCell id="9oTjwRKEW8xBZfcY-nuD-117" value="number_of_friends" style="ellipse;whiteSpace=wrap;html=1;align=center;" vertex="1" parent="1">
          <mxGeometry x="700" y="360" width="100" height="40" as="geometry" />
        </mxCell>
        <mxCell id="9oTjwRKEW8xBZfcY-nuD-118" value="address" style="ellipse;whiteSpace=wrap;html=1;align=center;" vertex="1" parent="1">
          <mxGeometry x="660" y="410" width="100" height="40" as="geometry" />
        </mxCell>
        <mxCell id="9oTjwRKEW8xBZfcY-nuD-119" value="" style="endArrow=none;html=1;rounded=0;exitX=1;exitY=1;exitDx=0;exitDy=0;entryX=0.591;entryY=0.1;entryDx=0;entryDy=0;entryPerimeter=0;" edge="1" parent="1" source="9oTjwRKEW8xBZfcY-nuD-111" target="7C17oXnh3V5a_mMupnRN-2">
          <mxGeometry relative="1" as="geometry">
            <mxPoint x="1130" y="560" as="sourcePoint" />
            <mxPoint x="1290" y="560" as="targetPoint" />
          </mxGeometry>
        </mxCell>
        <mxCell id="9oTjwRKEW8xBZfcY-nuD-120" value="" style="endArrow=none;html=1;rounded=0;exitX=1;exitY=1;exitDx=0;exitDy=0;" edge="1" parent="1" source="9oTjwRKEW8xBZfcY-nuD-112">
          <mxGeometry relative="1" as="geometry">
            <mxPoint x="1130" y="420" as="sourcePoint" />
            <mxPoint x="1530" y="630" as="targetPoint" />
          </mxGeometry>
        </mxCell>
        <mxCell id="9oTjwRKEW8xBZfcY-nuD-121" value="" style="endArrow=none;html=1;rounded=0;exitX=1;exitY=1;exitDx=0;exitDy=0;" edge="1" parent="1" source="9oTjwRKEW8xBZfcY-nuD-113">
          <mxGeometry relative="1" as="geometry">
            <mxPoint x="1130" y="420" as="sourcePoint" />
            <mxPoint x="1530" y="630" as="targetPoint" />
          </mxGeometry>
        </mxCell>
        <mxCell id="9oTjwRKEW8xBZfcY-nuD-122" value="" style="endArrow=none;html=1;rounded=0;exitX=1;exitY=1;exitDx=0;exitDy=0;entryX=0.602;entryY=0.1;entryDx=0;entryDy=0;entryPerimeter=0;" edge="1" parent="1" source="9oTjwRKEW8xBZfcY-nuD-114" target="7C17oXnh3V5a_mMupnRN-2">
          <mxGeometry relative="1" as="geometry">
            <mxPoint x="1130" y="420" as="sourcePoint" />
            <mxPoint x="1290" y="420" as="targetPoint" />
          </mxGeometry>
        </mxCell>
        <mxCell id="9oTjwRKEW8xBZfcY-nuD-123" value="" style="endArrow=none;html=1;rounded=0;exitX=0.95;exitY=0.75;exitDx=0;exitDy=0;exitPerimeter=0;entryX=0.5;entryY=0;entryDx=0;entryDy=0;" edge="1" parent="1" source="9oTjwRKEW8xBZfcY-nuD-115" target="7C17oXnh3V5a_mMupnRN-2">
          <mxGeometry relative="1" as="geometry">
            <mxPoint x="1130" y="420" as="sourcePoint" />
            <mxPoint x="1290" y="420" as="targetPoint" />
          </mxGeometry>
        </mxCell>
        <mxCell id="9oTjwRKEW8xBZfcY-nuD-124" value="" style="endArrow=none;html=1;rounded=0;entryX=0.614;entryY=0.075;entryDx=0;entryDy=0;entryPerimeter=0;" edge="1" parent="1" source="9oTjwRKEW8xBZfcY-nuD-116" target="7C17oXnh3V5a_mMupnRN-2">
          <mxGeometry relative="1" as="geometry">
            <mxPoint x="1130" y="420" as="sourcePoint" />
            <mxPoint x="1290" y="420" as="targetPoint" />
          </mxGeometry>
        </mxCell>
        <mxCell id="9oTjwRKEW8xBZfcY-nuD-125" value="" style="endArrow=none;html=1;rounded=0;exitX=1;exitY=0.5;exitDx=0;exitDy=0;entryX=0.5;entryY=0;entryDx=0;entryDy=0;" edge="1" parent="1" source="9oTjwRKEW8xBZfcY-nuD-117" target="7C17oXnh3V5a_mMupnRN-2">
          <mxGeometry relative="1" as="geometry">
            <mxPoint x="1130" y="420" as="sourcePoint" />
            <mxPoint x="1290" y="420" as="targetPoint" />
          </mxGeometry>
        </mxCell>
        <mxCell id="9oTjwRKEW8xBZfcY-nuD-126" value="" style="endArrow=none;html=1;rounded=0;exitX=1;exitY=1;exitDx=0;exitDy=0;entryX=0.5;entryY=0;entryDx=0;entryDy=0;" edge="1" parent="1" source="9oTjwRKEW8xBZfcY-nuD-118" target="7C17oXnh3V5a_mMupnRN-2">
          <mxGeometry relative="1" as="geometry">
            <mxPoint x="1130" y="420" as="sourcePoint" />
            <mxPoint x="1290" y="420" as="targetPoint" />
          </mxGeometry>
        </mxCell>
        <mxCell id="9oTjwRKEW8xBZfcY-nuD-128" value="street" style="ellipse;whiteSpace=wrap;html=1;align=center;" vertex="1" parent="1">
          <mxGeometry x="510" y="300" width="100" height="40" as="geometry" />
        </mxCell>
        <mxCell id="9oTjwRKEW8xBZfcY-nuD-129" value="city" style="ellipse;whiteSpace=wrap;html=1;align=center;" vertex="1" parent="1">
          <mxGeometry x="480" y="370" width="100" height="40" as="geometry" />
        </mxCell>
        <mxCell id="9oTjwRKEW8xBZfcY-nuD-131" value="" style="endArrow=none;html=1;rounded=0;exitX=1;exitY=1;exitDx=0;exitDy=0;entryX=0.3;entryY=0.125;entryDx=0;entryDy=0;entryPerimeter=0;" edge="1" parent="1" source="9oTjwRKEW8xBZfcY-nuD-128" target="9oTjwRKEW8xBZfcY-nuD-118">
          <mxGeometry relative="1" as="geometry">
            <mxPoint x="1020" y="400" as="sourcePoint" />
            <mxPoint x="1180" y="400" as="targetPoint" />
          </mxGeometry>
        </mxCell>
        <mxCell id="9oTjwRKEW8xBZfcY-nuD-132" value="" style="endArrow=none;html=1;rounded=0;entryX=0;entryY=0.5;entryDx=0;entryDy=0;exitX=0.988;exitY=0.781;exitDx=0;exitDy=0;exitPerimeter=0;" edge="1" parent="1" source="9oTjwRKEW8xBZfcY-nuD-129" target="9oTjwRKEW8xBZfcY-nuD-118">
          <mxGeometry relative="1" as="geometry">
            <mxPoint x="1020" y="400" as="sourcePoint" />
            <mxPoint x="1180" y="400" as="targetPoint" />
          </mxGeometry>
        </mxCell>
        <mxCell id="9oTjwRKEW8xBZfcY-nuD-134" value="Attribute" style="ellipse;whiteSpace=wrap;html=1;align=center;" vertex="1" parent="1">
          <mxGeometry x="500" y="450" width="100" height="40" as="geometry" />
        </mxCell>
        <mxCell id="9oTjwRKEW8xBZfcY-nuD-135" value="" style="endArrow=none;html=1;rounded=0;entryX=0;entryY=1;entryDx=0;entryDy=0;exitX=1;exitY=0.5;exitDx=0;exitDy=0;" edge="1" parent="1" source="9oTjwRKEW8xBZfcY-nuD-134" target="9oTjwRKEW8xBZfcY-nuD-118">
          <mxGeometry relative="1" as="geometry">
            <mxPoint x="1020" y="400" as="sourcePoint" />
            <mxPoint x="1180" y="400" as="targetPoint" />
          </mxGeometry>
        </mxCell>
        <mxCell id="9oTjwRKEW8xBZfcY-nuD-136" value="status" style="ellipse;whiteSpace=wrap;html=1;align=center;" vertex="1" parent="1">
          <mxGeometry x="660" y="460" width="100" height="40" as="geometry" />
        </mxCell>
        <mxCell id="9oTjwRKEW8xBZfcY-nuD-137" value="last_login" style="ellipse;whiteSpace=wrap;html=1;align=center;" vertex="1" parent="1">
          <mxGeometry x="660" y="510" width="100" height="40" as="geometry" />
        </mxCell>
        <mxCell id="9oTjwRKEW8xBZfcY-nuD-138" value="security_question" style="ellipse;whiteSpace=wrap;html=1;align=center;" vertex="1" parent="1">
          <mxGeometry x="660" y="560" width="100" height="40" as="geometry" />
        </mxCell>
        <mxCell id="9oTjwRKEW8xBZfcY-nuD-139" value="security_answer" style="ellipse;whiteSpace=wrap;html=1;align=center;" vertex="1" parent="1">
          <mxGeometry x="680" y="610" width="100" height="40" as="geometry" />
        </mxCell>
        <mxCell id="9oTjwRKEW8xBZfcY-nuD-140" value="" style="endArrow=none;html=1;rounded=0;exitX=1;exitY=0.5;exitDx=0;exitDy=0;entryX=0.602;entryY=0.075;entryDx=0;entryDy=0;entryPerimeter=0;" edge="1" parent="1" source="9oTjwRKEW8xBZfcY-nuD-136" target="7C17oXnh3V5a_mMupnRN-2">
          <mxGeometry relative="1" as="geometry">
            <mxPoint x="1020" y="370" as="sourcePoint" />
            <mxPoint x="1180" y="370" as="targetPoint" />
          </mxGeometry>
        </mxCell>
        <mxCell id="9oTjwRKEW8xBZfcY-nuD-141" value="" style="endArrow=none;html=1;rounded=0;exitX=1;exitY=0.5;exitDx=0;exitDy=0;entryX=0.591;entryY=0.075;entryDx=0;entryDy=0;entryPerimeter=0;" edge="1" parent="1" source="9oTjwRKEW8xBZfcY-nuD-137" target="7C17oXnh3V5a_mMupnRN-2">
          <mxGeometry relative="1" as="geometry">
            <mxPoint x="1020" y="370" as="sourcePoint" />
            <mxPoint x="1180" y="370" as="targetPoint" />
          </mxGeometry>
        </mxCell>
        <mxCell id="9oTjwRKEW8xBZfcY-nuD-142" value="" style="endArrow=none;html=1;rounded=0;exitX=1;exitY=0.219;exitDx=0;exitDy=0;exitPerimeter=0;entryX=0.58;entryY=-0.025;entryDx=0;entryDy=0;entryPerimeter=0;" edge="1" parent="1" source="9oTjwRKEW8xBZfcY-nuD-138" target="7C17oXnh3V5a_mMupnRN-2">
          <mxGeometry relative="1" as="geometry">
            <mxPoint x="1020" y="370" as="sourcePoint" />
            <mxPoint x="1180" y="370" as="targetPoint" />
          </mxGeometry>
        </mxCell>
        <mxCell id="9oTjwRKEW8xBZfcY-nuD-143" value="" style="endArrow=none;html=1;rounded=0;exitX=1;exitY=0.5;exitDx=0;exitDy=0;entryX=0.602;entryY=0.025;entryDx=0;entryDy=0;entryPerimeter=0;" edge="1" parent="1" source="9oTjwRKEW8xBZfcY-nuD-139" target="7C17oXnh3V5a_mMupnRN-2">
          <mxGeometry relative="1" as="geometry">
            <mxPoint x="1020" y="370" as="sourcePoint" />
            <mxPoint x="1180" y="370" as="targetPoint" />
          </mxGeometry>
        </mxCell>
        <mxCell id="9oTjwRKEW8xBZfcY-nuD-144" value="message_id" style="ellipse;whiteSpace=wrap;html=1;align=center;fontStyle=4;" vertex="1" parent="1">
          <mxGeometry x="2150" y="70" width="100" height="40" as="geometry" />
        </mxCell>
        <mxCell id="9oTjwRKEW8xBZfcY-nuD-145" value="sender_id" style="ellipse;whiteSpace=wrap;html=1;align=center;" vertex="1" parent="1">
          <mxGeometry x="2270" y="90" width="100" height="40" as="geometry" />
        </mxCell>
        <mxCell id="9oTjwRKEW8xBZfcY-nuD-146" value="receiver_id" style="ellipse;whiteSpace=wrap;html=1;align=center;" vertex="1" parent="1">
          <mxGeometry x="2350" y="140" width="100" height="40" as="geometry" />
        </mxCell>
        <mxCell id="9oTjwRKEW8xBZfcY-nuD-147" value="content" style="ellipse;whiteSpace=wrap;html=1;align=center;" vertex="1" parent="1">
          <mxGeometry x="2020" y="80" width="100" height="40" as="geometry" />
        </mxCell>
        <mxCell id="9oTjwRKEW8xBZfcY-nuD-148" value="is_read" style="ellipse;whiteSpace=wrap;html=1;align=center;" vertex="1" parent="1">
          <mxGeometry x="1910" y="120" width="100" height="40" as="geometry" />
        </mxCell>
        <mxCell id="9oTjwRKEW8xBZfcY-nuD-149" value="created_at" style="ellipse;whiteSpace=wrap;html=1;align=center;" vertex="1" parent="1">
          <mxGeometry x="1870" y="180" width="100" height="40" as="geometry" />
        </mxCell>
        <mxCell id="9oTjwRKEW8xBZfcY-nuD-150" value="" style="endArrow=none;html=1;rounded=0;exitX=0.729;exitY=0.954;exitDx=0;exitDy=0;exitPerimeter=0;entryX=0.5;entryY=0;entryDx=0;entryDy=0;" edge="1" parent="1" source="9oTjwRKEW8xBZfcY-nuD-149" target="9oTjwRKEW8xBZfcY-nuD-14">
          <mxGeometry relative="1" as="geometry">
            <mxPoint x="2350" y="150" as="sourcePoint" />
            <mxPoint x="2510" y="150" as="targetPoint" />
          </mxGeometry>
        </mxCell>
        <mxCell id="9oTjwRKEW8xBZfcY-nuD-151" value="" style="endArrow=none;html=1;rounded=0;exitX=1;exitY=1;exitDx=0;exitDy=0;entryX=0.5;entryY=0;entryDx=0;entryDy=0;" edge="1" parent="1" source="9oTjwRKEW8xBZfcY-nuD-148" target="9oTjwRKEW8xBZfcY-nuD-14">
          <mxGeometry relative="1" as="geometry">
            <mxPoint x="2350" y="150" as="sourcePoint" />
            <mxPoint x="2510" y="150" as="targetPoint" />
          </mxGeometry>
        </mxCell>
        <mxCell id="9oTjwRKEW8xBZfcY-nuD-152" value="" style="endArrow=none;html=1;rounded=0;exitX=0.5;exitY=1;exitDx=0;exitDy=0;entryX=0.5;entryY=0;entryDx=0;entryDy=0;" edge="1" parent="1" source="9oTjwRKEW8xBZfcY-nuD-147" target="9oTjwRKEW8xBZfcY-nuD-14">
          <mxGeometry relative="1" as="geometry">
            <mxPoint x="2350" y="150" as="sourcePoint" />
            <mxPoint x="2510" y="150" as="targetPoint" />
          </mxGeometry>
        </mxCell>
        <mxCell id="9oTjwRKEW8xBZfcY-nuD-153" value="" style="endArrow=none;html=1;rounded=0;exitX=0.5;exitY=1;exitDx=0;exitDy=0;entryX=0.5;entryY=0;entryDx=0;entryDy=0;" edge="1" parent="1" source="9oTjwRKEW8xBZfcY-nuD-144" target="9oTjwRKEW8xBZfcY-nuD-14">
          <mxGeometry relative="1" as="geometry">
            <mxPoint x="2350" y="150" as="sourcePoint" />
            <mxPoint x="2510" y="150" as="targetPoint" />
          </mxGeometry>
        </mxCell>
        <mxCell id="9oTjwRKEW8xBZfcY-nuD-154" value="" style="endArrow=none;html=1;rounded=0;exitX=0.371;exitY=1.061;exitDx=0;exitDy=0;exitPerimeter=0;entryX=0.5;entryY=0;entryDx=0;entryDy=0;" edge="1" parent="1" source="9oTjwRKEW8xBZfcY-nuD-145" target="9oTjwRKEW8xBZfcY-nuD-14">
          <mxGeometry relative="1" as="geometry">
            <mxPoint x="2350" y="150" as="sourcePoint" />
            <mxPoint x="2510" y="150" as="targetPoint" />
          </mxGeometry>
        </mxCell>
        <mxCell id="9oTjwRKEW8xBZfcY-nuD-155" value="" style="endArrow=none;html=1;rounded=0;exitX=0;exitY=1;exitDx=0;exitDy=0;entryX=0.5;entryY=0;entryDx=0;entryDy=0;" edge="1" parent="1" source="9oTjwRKEW8xBZfcY-nuD-146" target="9oTjwRKEW8xBZfcY-nuD-14">
          <mxGeometry relative="1" as="geometry">
            <mxPoint x="2350" y="150" as="sourcePoint" />
            <mxPoint x="2510" y="150" as="targetPoint" />
          </mxGeometry>
        </mxCell>
        <mxCell id="9oTjwRKEW8xBZfcY-nuD-156" value="name" style="ellipse;whiteSpace=wrap;html=1;align=center;" vertex="1" parent="1">
          <mxGeometry x="2760" y="90" width="100" height="40" as="geometry" />
        </mxCell>
        <mxCell id="9oTjwRKEW8xBZfcY-nuD-157" value="hashtag_id" style="ellipse;whiteSpace=wrap;html=1;align=center;fontStyle=4;" vertex="1" parent="1">
          <mxGeometry x="2650" y="60" width="100" height="40" as="geometry" />
        </mxCell>
        <mxCell id="9oTjwRKEW8xBZfcY-nuD-159" value="associated_post_id" style="ellipse;whiteSpace=wrap;html=1;align=center;fontStyle=4;" vertex="1" parent="1">
          <mxGeometry x="2530" y="70" width="100" height="40" as="geometry" />
        </mxCell>
        <mxCell id="9oTjwRKEW8xBZfcY-nuD-160" value="created_at" style="ellipse;whiteSpace=wrap;html=1;align=center;" vertex="1" parent="1">
          <mxGeometry x="2850" y="140" width="100" height="40" as="geometry" />
        </mxCell>
        <mxCell id="9oTjwRKEW8xBZfcY-nuD-161" value="" style="endArrow=none;html=1;rounded=0;entryX=0.5;entryY=1;entryDx=0;entryDy=0;exitX=0.5;exitY=0;exitDx=0;exitDy=0;" edge="1" parent="1" source="9oTjwRKEW8xBZfcY-nuD-24" target="9oTjwRKEW8xBZfcY-nuD-159">
          <mxGeometry relative="1" as="geometry">
            <mxPoint x="2350" y="150" as="sourcePoint" />
            <mxPoint x="2510" y="150" as="targetPoint" />
          </mxGeometry>
        </mxCell>
        <mxCell id="9oTjwRKEW8xBZfcY-nuD-162" value="" style="endArrow=none;html=1;rounded=0;exitX=0.5;exitY=0;exitDx=0;exitDy=0;entryX=0.314;entryY=0.918;entryDx=0;entryDy=0;entryPerimeter=0;" edge="1" parent="1" source="9oTjwRKEW8xBZfcY-nuD-24" target="9oTjwRKEW8xBZfcY-nuD-157">
          <mxGeometry relative="1" as="geometry">
            <mxPoint x="2350" y="150" as="sourcePoint" />
            <mxPoint x="2510" y="150" as="targetPoint" />
          </mxGeometry>
        </mxCell>
        <mxCell id="9oTjwRKEW8xBZfcY-nuD-163" value="" style="endArrow=none;html=1;rounded=0;entryX=0.329;entryY=1.096;entryDx=0;entryDy=0;entryPerimeter=0;exitX=0.5;exitY=0;exitDx=0;exitDy=0;" edge="1" parent="1" source="9oTjwRKEW8xBZfcY-nuD-24" target="9oTjwRKEW8xBZfcY-nuD-156">
          <mxGeometry relative="1" as="geometry">
            <mxPoint x="2350" y="150" as="sourcePoint" />
            <mxPoint x="2510" y="150" as="targetPoint" />
          </mxGeometry>
        </mxCell>
        <mxCell id="9oTjwRKEW8xBZfcY-nuD-164" value="" style="endArrow=none;html=1;rounded=0;entryX=0.3;entryY=1.025;entryDx=0;entryDy=0;entryPerimeter=0;exitX=0.5;exitY=0;exitDx=0;exitDy=0;" edge="1" parent="1" source="9oTjwRKEW8xBZfcY-nuD-24" target="9oTjwRKEW8xBZfcY-nuD-160">
          <mxGeometry relative="1" as="geometry">
            <mxPoint x="2350" y="150" as="sourcePoint" />
            <mxPoint x="2510" y="150" as="targetPoint" />
          </mxGeometry>
        </mxCell>
        <mxCell id="9oTjwRKEW8xBZfcY-nuD-165" value="post_id" style="ellipse;whiteSpace=wrap;html=1;align=center;" vertex="1" parent="1">
          <mxGeometry x="3070" y="300" width="100" height="40" as="geometry" />
        </mxCell>
        <mxCell id="9oTjwRKEW8xBZfcY-nuD-166" value="user_id" style="ellipse;whiteSpace=wrap;html=1;align=center;" vertex="1" parent="1">
          <mxGeometry x="3170" y="330" width="100" height="40" as="geometry" />
        </mxCell>
        <mxCell id="9oTjwRKEW8xBZfcY-nuD-167" value="reaction_item-type" style="ellipse;whiteSpace=wrap;html=1;align=center;" vertex="1" parent="1">
          <mxGeometry x="3270" y="370" width="100" height="40" as="geometry" />
        </mxCell>
        <mxCell id="9oTjwRKEW8xBZfcY-nuD-168" value="like_id" style="ellipse;whiteSpace=wrap;html=1;align=center;fontStyle=4;" vertex="1" parent="1">
          <mxGeometry x="2950" y="280" width="100" height="40" as="geometry" />
        </mxCell>
        <mxCell id="9oTjwRKEW8xBZfcY-nuD-169" value="created_at" style="ellipse;whiteSpace=wrap;html=1;align=center;" vertex="1" parent="1">
          <mxGeometry x="3340" y="430" width="100" height="40" as="geometry" />
        </mxCell>
        <mxCell id="9oTjwRKEW8xBZfcY-nuD-170" value="" style="endArrow=none;html=1;rounded=0;entryX=0.33;entryY=0.917;entryDx=0;entryDy=0;entryPerimeter=0;exitX=0.5;exitY=0;exitDx=0;exitDy=0;" edge="1" parent="1" source="9oTjwRKEW8xBZfcY-nuD-28" target="9oTjwRKEW8xBZfcY-nuD-168">
          <mxGeometry relative="1" as="geometry">
            <mxPoint x="2460" y="460" as="sourcePoint" />
            <mxPoint x="2620" y="460" as="targetPoint" />
          </mxGeometry>
        </mxCell>
        <mxCell id="9oTjwRKEW8xBZfcY-nuD-172" value="" style="endArrow=none;html=1;rounded=0;entryX=0;entryY=1;entryDx=0;entryDy=0;exitX=0.5;exitY=0;exitDx=0;exitDy=0;" edge="1" parent="1" source="9oTjwRKEW8xBZfcY-nuD-28" target="9oTjwRKEW8xBZfcY-nuD-165">
          <mxGeometry relative="1" as="geometry">
            <mxPoint x="2460" y="460" as="sourcePoint" />
            <mxPoint x="2620" y="460" as="targetPoint" />
          </mxGeometry>
        </mxCell>
        <mxCell id="9oTjwRKEW8xBZfcY-nuD-173" value="" style="endArrow=none;html=1;rounded=0;entryX=0;entryY=1;entryDx=0;entryDy=0;exitX=0.5;exitY=0;exitDx=0;exitDy=0;" edge="1" parent="1" source="9oTjwRKEW8xBZfcY-nuD-28" target="9oTjwRKEW8xBZfcY-nuD-166">
          <mxGeometry relative="1" as="geometry">
            <mxPoint x="2460" y="460" as="sourcePoint" />
            <mxPoint x="2620" y="460" as="targetPoint" />
          </mxGeometry>
        </mxCell>
        <mxCell id="9oTjwRKEW8xBZfcY-nuD-174" value="" style="endArrow=none;html=1;rounded=0;entryX=0;entryY=1;entryDx=0;entryDy=0;exitX=0.5;exitY=0;exitDx=0;exitDy=0;" edge="1" parent="1" source="9oTjwRKEW8xBZfcY-nuD-28" target="9oTjwRKEW8xBZfcY-nuD-167">
          <mxGeometry relative="1" as="geometry">
            <mxPoint x="2460" y="460" as="sourcePoint" />
            <mxPoint x="2620" y="460" as="targetPoint" />
          </mxGeometry>
        </mxCell>
        <mxCell id="9oTjwRKEW8xBZfcY-nuD-175" value="" style="endArrow=none;html=1;rounded=0;entryX=0.013;entryY=0.875;entryDx=0;entryDy=0;entryPerimeter=0;exitX=0.5;exitY=0;exitDx=0;exitDy=0;" edge="1" parent="1" source="9oTjwRKEW8xBZfcY-nuD-28" target="9oTjwRKEW8xBZfcY-nuD-169">
          <mxGeometry relative="1" as="geometry">
            <mxPoint x="2460" y="460" as="sourcePoint" />
            <mxPoint x="2620" y="460" as="targetPoint" />
          </mxGeometry>
        </mxCell>
        <mxCell id="9oTjwRKEW8xBZfcY-nuD-176" value="notification_id" style="ellipse;whiteSpace=wrap;html=1;align=center;fontStyle=4;" vertex="1" parent="1">
          <mxGeometry x="3080" y="1200" width="100" height="40" as="geometry" />
        </mxCell>
        <mxCell id="9oTjwRKEW8xBZfcY-nuD-177" value="user_id" style="ellipse;whiteSpace=wrap;html=1;align=center;" vertex="1" parent="1">
          <mxGeometry x="3050" y="1250" width="100" height="40" as="geometry" />
        </mxCell>
        <mxCell id="9oTjwRKEW8xBZfcY-nuD-178" value="type" style="ellipse;whiteSpace=wrap;html=1;align=center;" vertex="1" parent="1">
          <mxGeometry x="2990" y="1300" width="100" height="40" as="geometry" />
        </mxCell>
        <mxCell id="9oTjwRKEW8xBZfcY-nuD-179" value="source_id" style="ellipse;whiteSpace=wrap;html=1;align=center;" vertex="1" parent="1">
          <mxGeometry x="2930" y="1350" width="100" height="40" as="geometry" />
        </mxCell>
        <mxCell id="9oTjwRKEW8xBZfcY-nuD-180" value="is_read" style="ellipse;whiteSpace=wrap;html=1;align=center;" vertex="1" parent="1">
          <mxGeometry x="2860" y="1400" width="100" height="40" as="geometry" />
        </mxCell>
        <mxCell id="9oTjwRKEW8xBZfcY-nuD-182" value="created_at" style="ellipse;whiteSpace=wrap;html=1;align=center;" vertex="1" parent="1">
          <mxGeometry x="2750" y="1420" width="100" height="40" as="geometry" />
        </mxCell>
        <mxCell id="9oTjwRKEW8xBZfcY-nuD-183" value="" style="endArrow=none;html=1;rounded=0;entryX=0.5;entryY=1;entryDx=0;entryDy=0;exitX=0;exitY=0;exitDx=0;exitDy=0;" edge="1" parent="1" source="9oTjwRKEW8xBZfcY-nuD-176" target="9oTjwRKEW8xBZfcY-nuD-34">
          <mxGeometry relative="1" as="geometry">
            <mxPoint x="2450" y="1340" as="sourcePoint" />
            <mxPoint x="2610" y="1340" as="targetPoint" />
          </mxGeometry>
        </mxCell>
        <mxCell id="9oTjwRKEW8xBZfcY-nuD-184" value="" style="endArrow=none;html=1;rounded=0;exitX=0.5;exitY=1;exitDx=0;exitDy=0;entryX=0;entryY=0;entryDx=0;entryDy=0;" edge="1" parent="1" source="9oTjwRKEW8xBZfcY-nuD-34" target="9oTjwRKEW8xBZfcY-nuD-177">
          <mxGeometry relative="1" as="geometry">
            <mxPoint x="2450" y="1340" as="sourcePoint" />
            <mxPoint x="2610" y="1340" as="targetPoint" />
          </mxGeometry>
        </mxCell>
        <mxCell id="9oTjwRKEW8xBZfcY-nuD-185" value="" style="endArrow=none;html=1;rounded=0;exitX=0.5;exitY=1;exitDx=0;exitDy=0;entryX=0;entryY=0;entryDx=0;entryDy=0;" edge="1" parent="1" source="9oTjwRKEW8xBZfcY-nuD-34" target="9oTjwRKEW8xBZfcY-nuD-178">
          <mxGeometry relative="1" as="geometry">
            <mxPoint x="2450" y="1340" as="sourcePoint" />
            <mxPoint x="2610" y="1340" as="targetPoint" />
          </mxGeometry>
        </mxCell>
        <mxCell id="9oTjwRKEW8xBZfcY-nuD-186" value="" style="endArrow=none;html=1;rounded=0;exitX=0.5;exitY=1;exitDx=0;exitDy=0;entryX=0;entryY=0;entryDx=0;entryDy=0;entryPerimeter=0;" edge="1" parent="1" source="9oTjwRKEW8xBZfcY-nuD-34" target="9oTjwRKEW8xBZfcY-nuD-179">
          <mxGeometry relative="1" as="geometry">
            <mxPoint x="2450" y="1340" as="sourcePoint" />
            <mxPoint x="2610" y="1340" as="targetPoint" />
          </mxGeometry>
        </mxCell>
        <mxCell id="9oTjwRKEW8xBZfcY-nuD-187" value="" style="endArrow=none;html=1;rounded=0;exitX=0.5;exitY=1;exitDx=0;exitDy=0;entryX=0.071;entryY=-0.118;entryDx=0;entryDy=0;entryPerimeter=0;" edge="1" parent="1" source="9oTjwRKEW8xBZfcY-nuD-34" target="9oTjwRKEW8xBZfcY-nuD-180">
          <mxGeometry relative="1" as="geometry">
            <mxPoint x="2450" y="1340" as="sourcePoint" />
            <mxPoint x="2610" y="1340" as="targetPoint" />
          </mxGeometry>
        </mxCell>
        <mxCell id="9oTjwRKEW8xBZfcY-nuD-188" value="" style="endArrow=none;html=1;rounded=0;exitX=0.5;exitY=1;exitDx=0;exitDy=0;entryX=0.243;entryY=-0.082;entryDx=0;entryDy=0;entryPerimeter=0;" edge="1" parent="1" source="9oTjwRKEW8xBZfcY-nuD-34" target="9oTjwRKEW8xBZfcY-nuD-182">
          <mxGeometry relative="1" as="geometry">
            <mxPoint x="2450" y="1340" as="sourcePoint" />
            <mxPoint x="2610" y="1340" as="targetPoint" />
          </mxGeometry>
        </mxCell>
        <mxCell id="9oTjwRKEW8xBZfcY-nuD-189" value="post_id" style="ellipse;whiteSpace=wrap;html=1;align=center;fontStyle=4;" vertex="1" parent="1">
          <mxGeometry x="2680" y="730" width="100" height="40" as="geometry" />
        </mxCell>
        <mxCell id="9oTjwRKEW8xBZfcY-nuD-190" value="user_id" style="ellipse;whiteSpace=wrap;html=1;align=center;" vertex="1" parent="1">
          <mxGeometry x="2650" y="770" width="100" height="40" as="geometry" />
        </mxCell>
        <mxCell id="9oTjwRKEW8xBZfcY-nuD-191" value="content" style="ellipse;whiteSpace=wrap;html=1;align=center;" vertex="1" parent="1">
          <mxGeometry x="2610" y="810" width="100" height="40" as="geometry" />
        </mxCell>
        <mxCell id="9oTjwRKEW8xBZfcY-nuD-192" value="image_url" style="ellipse;whiteSpace=wrap;html=1;align=center;" vertex="1" parent="1">
          <mxGeometry x="2540" y="840" width="100" height="40" as="geometry" />
        </mxCell>
        <mxCell id="9oTjwRKEW8xBZfcY-nuD-193" value="created_at" style="ellipse;whiteSpace=wrap;html=1;align=center;" vertex="1" parent="1">
          <mxGeometry x="2440" y="860" width="100" height="40" as="geometry" />
        </mxCell>
        <mxCell id="9oTjwRKEW8xBZfcY-nuD-194" value="share_count" style="ellipse;whiteSpace=wrap;html=1;align=center;" vertex="1" parent="1">
          <mxGeometry x="2340" y="840" width="100" height="40" as="geometry" />
        </mxCell>
        <mxCell id="9oTjwRKEW8xBZfcY-nuD-195" value="like_count" style="ellipse;whiteSpace=wrap;html=1;align=center;" vertex="1" parent="1">
          <mxGeometry x="2260" y="810" width="100" height="40" as="geometry" />
        </mxCell>
        <mxCell id="9oTjwRKEW8xBZfcY-nuD-196" value="comment_count" style="ellipse;whiteSpace=wrap;html=1;align=center;" vertex="1" parent="1">
          <mxGeometry x="2170" y="780" width="100" height="40" as="geometry" />
        </mxCell>
        <mxCell id="9oTjwRKEW8xBZfcY-nuD-197" value="location" style="ellipse;whiteSpace=wrap;html=1;align=center;" vertex="1" parent="1">
          <mxGeometry x="2090" y="750" width="100" height="40" as="geometry" />
        </mxCell>
        <mxCell id="9oTjwRKEW8xBZfcY-nuD-198" value="audience" style="ellipse;whiteSpace=wrap;html=1;align=center;" vertex="1" parent="1">
          <mxGeometry x="2090" y="700" width="100" height="40" as="geometry" />
        </mxCell>
        <mxCell id="9oTjwRKEW8xBZfcY-nuD-200" value="" style="endArrow=none;html=1;rounded=0;exitX=0.75;exitY=1;exitDx=0;exitDy=0;entryX=0;entryY=0.5;entryDx=0;entryDy=0;" edge="1" parent="1" source="7C17oXnh3V5a_mMupnRN-3" target="9oTjwRKEW8xBZfcY-nuD-189">
          <mxGeometry relative="1" as="geometry">
            <mxPoint x="2450" y="740" as="sourcePoint" />
            <mxPoint x="2610" y="740" as="targetPoint" />
          </mxGeometry>
        </mxCell>
        <mxCell id="9oTjwRKEW8xBZfcY-nuD-201" value="" style="endArrow=none;html=1;rounded=0;exitX=0.75;exitY=1;exitDx=0;exitDy=0;entryX=0.014;entryY=0.168;entryDx=0;entryDy=0;entryPerimeter=0;" edge="1" parent="1" source="7C17oXnh3V5a_mMupnRN-3" target="9oTjwRKEW8xBZfcY-nuD-190">
          <mxGeometry relative="1" as="geometry">
            <mxPoint x="2330" y="720" as="sourcePoint" />
            <mxPoint x="2610" y="740" as="targetPoint" />
          </mxGeometry>
        </mxCell>
        <mxCell id="9oTjwRKEW8xBZfcY-nuD-202" value="" style="endArrow=none;html=1;rounded=0;exitX=0.75;exitY=1;exitDx=0;exitDy=0;entryX=0;entryY=0;entryDx=0;entryDy=0;" edge="1" parent="1" source="7C17oXnh3V5a_mMupnRN-3" target="9oTjwRKEW8xBZfcY-nuD-191">
          <mxGeometry relative="1" as="geometry">
            <mxPoint x="2450" y="740" as="sourcePoint" />
            <mxPoint x="2610" y="740" as="targetPoint" />
          </mxGeometry>
        </mxCell>
        <mxCell id="9oTjwRKEW8xBZfcY-nuD-203" value="" style="endArrow=none;html=1;rounded=0;exitX=0.75;exitY=1;exitDx=0;exitDy=0;entryX=0.286;entryY=-0.082;entryDx=0;entryDy=0;entryPerimeter=0;" edge="1" parent="1" source="7C17oXnh3V5a_mMupnRN-3" target="9oTjwRKEW8xBZfcY-nuD-192">
          <mxGeometry relative="1" as="geometry">
            <mxPoint x="2450" y="740" as="sourcePoint" />
            <mxPoint x="2610" y="740" as="targetPoint" />
          </mxGeometry>
        </mxCell>
        <mxCell id="9oTjwRKEW8xBZfcY-nuD-204" value="" style="endArrow=none;html=1;rounded=0;exitX=0.75;exitY=1;exitDx=0;exitDy=0;entryX=0.5;entryY=0;entryDx=0;entryDy=0;" edge="1" parent="1" source="7C17oXnh3V5a_mMupnRN-3" target="9oTjwRKEW8xBZfcY-nuD-193">
          <mxGeometry relative="1" as="geometry">
            <mxPoint x="2450" y="740" as="sourcePoint" />
            <mxPoint x="2610" y="740" as="targetPoint" />
          </mxGeometry>
        </mxCell>
        <mxCell id="9oTjwRKEW8xBZfcY-nuD-205" value="" style="endArrow=none;html=1;rounded=0;exitX=0.75;exitY=1;exitDx=0;exitDy=0;entryX=0.5;entryY=0;entryDx=0;entryDy=0;" edge="1" parent="1" source="7C17oXnh3V5a_mMupnRN-3" target="9oTjwRKEW8xBZfcY-nuD-194">
          <mxGeometry relative="1" as="geometry">
            <mxPoint x="2450" y="740" as="sourcePoint" />
            <mxPoint x="2610" y="740" as="targetPoint" />
          </mxGeometry>
        </mxCell>
        <mxCell id="9oTjwRKEW8xBZfcY-nuD-206" value="" style="endArrow=none;html=1;rounded=0;exitX=0.75;exitY=1;exitDx=0;exitDy=0;entryX=0.5;entryY=0;entryDx=0;entryDy=0;" edge="1" parent="1" source="7C17oXnh3V5a_mMupnRN-3" target="9oTjwRKEW8xBZfcY-nuD-195">
          <mxGeometry relative="1" as="geometry">
            <mxPoint x="2450" y="740" as="sourcePoint" />
            <mxPoint x="2610" y="740" as="targetPoint" />
          </mxGeometry>
        </mxCell>
        <mxCell id="9oTjwRKEW8xBZfcY-nuD-207" value="" style="endArrow=none;html=1;rounded=0;exitX=0.75;exitY=1;exitDx=0;exitDy=0;entryX=0.614;entryY=-0.011;entryDx=0;entryDy=0;entryPerimeter=0;" edge="1" parent="1" source="7C17oXnh3V5a_mMupnRN-3" target="9oTjwRKEW8xBZfcY-nuD-196">
          <mxGeometry relative="1" as="geometry">
            <mxPoint x="2450" y="740" as="sourcePoint" />
            <mxPoint x="2610" y="740" as="targetPoint" />
          </mxGeometry>
        </mxCell>
        <mxCell id="9oTjwRKEW8xBZfcY-nuD-208" value="" style="endArrow=none;html=1;rounded=0;exitX=0.75;exitY=1;exitDx=0;exitDy=0;entryX=1;entryY=0.5;entryDx=0;entryDy=0;" edge="1" parent="1" source="7C17oXnh3V5a_mMupnRN-3" target="9oTjwRKEW8xBZfcY-nuD-197">
          <mxGeometry relative="1" as="geometry">
            <mxPoint x="2450" y="740" as="sourcePoint" />
            <mxPoint x="2610" y="740" as="targetPoint" />
          </mxGeometry>
        </mxCell>
        <mxCell id="9oTjwRKEW8xBZfcY-nuD-209" value="" style="endArrow=none;html=1;rounded=0;exitX=0.75;exitY=1;exitDx=0;exitDy=0;entryX=1;entryY=0;entryDx=0;entryDy=0;" edge="1" parent="1" source="7C17oXnh3V5a_mMupnRN-3" target="9oTjwRKEW8xBZfcY-nuD-198">
          <mxGeometry relative="1" as="geometry">
            <mxPoint x="2450" y="740" as="sourcePoint" />
            <mxPoint x="2610" y="740" as="targetPoint" />
          </mxGeometry>
        </mxCell>
        <mxCell id="9oTjwRKEW8xBZfcY-nuD-210" value="post_id" style="ellipse;whiteSpace=wrap;html=1;align=center;" vertex="1" parent="1">
          <mxGeometry x="2410" y="1150" width="100" height="40" as="geometry" />
        </mxCell>
        <mxCell id="9oTjwRKEW8xBZfcY-nuD-211" value="comment_id" style="ellipse;whiteSpace=wrap;html=1;align=center;fontStyle=4;" vertex="1" parent="1">
          <mxGeometry x="2450" y="1110" width="100" height="40" as="geometry" />
        </mxCell>
        <mxCell id="9oTjwRKEW8xBZfcY-nuD-212" value="user_id" style="ellipse;whiteSpace=wrap;html=1;align=center;" vertex="1" parent="1">
          <mxGeometry x="2360" y="1190" width="100" height="40" as="geometry" />
        </mxCell>
        <mxCell id="9oTjwRKEW8xBZfcY-nuD-213" value="content" style="ellipse;whiteSpace=wrap;html=1;align=center;" vertex="1" parent="1">
          <mxGeometry x="2300" y="1230" width="100" height="40" as="geometry" />
        </mxCell>
        <mxCell id="9oTjwRKEW8xBZfcY-nuD-214" value="created_at" style="ellipse;whiteSpace=wrap;html=1;align=center;" vertex="1" parent="1">
          <mxGeometry x="2220" y="1260" width="100" height="40" as="geometry" />
        </mxCell>
        <mxCell id="9oTjwRKEW8xBZfcY-nuD-215" value="" style="endArrow=none;html=1;rounded=0;exitX=0.5;exitY=1;exitDx=0;exitDy=0;entryX=0;entryY=0.5;entryDx=0;entryDy=0;" edge="1" parent="1" source="9oTjwRKEW8xBZfcY-nuD-35" target="9oTjwRKEW8xBZfcY-nuD-211">
          <mxGeometry relative="1" as="geometry">
            <mxPoint x="2360" y="1230" as="sourcePoint" />
            <mxPoint x="2520" y="1230" as="targetPoint" />
          </mxGeometry>
        </mxCell>
        <mxCell id="9oTjwRKEW8xBZfcY-nuD-216" value="" style="endArrow=none;html=1;rounded=0;exitX=0.5;exitY=1;exitDx=0;exitDy=0;entryX=0;entryY=0.5;entryDx=0;entryDy=0;" edge="1" parent="1" source="9oTjwRKEW8xBZfcY-nuD-35" target="9oTjwRKEW8xBZfcY-nuD-210">
          <mxGeometry relative="1" as="geometry">
            <mxPoint x="2360" y="1230" as="sourcePoint" />
            <mxPoint x="2520" y="1230" as="targetPoint" />
          </mxGeometry>
        </mxCell>
        <mxCell id="9oTjwRKEW8xBZfcY-nuD-217" value="" style="endArrow=none;html=1;rounded=0;exitX=0.5;exitY=1;exitDx=0;exitDy=0;entryX=0;entryY=0;entryDx=0;entryDy=0;" edge="1" parent="1" source="9oTjwRKEW8xBZfcY-nuD-35" target="9oTjwRKEW8xBZfcY-nuD-212">
          <mxGeometry relative="1" as="geometry">
            <mxPoint x="2360" y="1230" as="sourcePoint" />
            <mxPoint x="2520" y="1230" as="targetPoint" />
          </mxGeometry>
        </mxCell>
        <mxCell id="9oTjwRKEW8xBZfcY-nuD-218" value="" style="endArrow=none;html=1;rounded=0;exitX=0.5;exitY=1;exitDx=0;exitDy=0;entryX=0;entryY=0;entryDx=0;entryDy=0;" edge="1" parent="1" source="9oTjwRKEW8xBZfcY-nuD-35" target="9oTjwRKEW8xBZfcY-nuD-213">
          <mxGeometry relative="1" as="geometry">
            <mxPoint x="2360" y="1230" as="sourcePoint" />
            <mxPoint x="2520" y="1230" as="targetPoint" />
          </mxGeometry>
        </mxCell>
        <mxCell id="9oTjwRKEW8xBZfcY-nuD-219" value="" style="endArrow=none;html=1;rounded=0;exitX=0.5;exitY=1;exitDx=0;exitDy=0;entryX=0;entryY=0;entryDx=0;entryDy=0;" edge="1" parent="1" source="9oTjwRKEW8xBZfcY-nuD-35" target="9oTjwRKEW8xBZfcY-nuD-214">
          <mxGeometry relative="1" as="geometry">
            <mxPoint x="2360" y="1230" as="sourcePoint" />
            <mxPoint x="2520" y="1230" as="targetPoint" />
          </mxGeometry>
        </mxCell>
        <mxCell id="9oTjwRKEW8xBZfcY-nuD-220" value="report_id" style="ellipse;whiteSpace=wrap;html=1;align=center;fontStyle=4;" vertex="1" parent="1">
          <mxGeometry x="2170" y="1440" width="100" height="40" as="geometry" />
        </mxCell>
        <mxCell id="9oTjwRKEW8xBZfcY-nuD-222" value="report_user_id" style="ellipse;whiteSpace=wrap;html=1;align=center;" vertex="1" parent="1">
          <mxGeometry x="2090" y="1480" width="100" height="40" as="geometry" />
        </mxCell>
        <mxCell id="9oTjwRKEW8xBZfcY-nuD-223" value="status" style="ellipse;whiteSpace=wrap;html=1;align=center;" vertex="1" parent="1">
          <mxGeometry x="1990" y="1500" width="100" height="40" as="geometry" />
        </mxCell>
        <mxCell id="9oTjwRKEW8xBZfcY-nuD-224" value="report_type" style="ellipse;whiteSpace=wrap;html=1;align=center;" vertex="1" parent="1">
          <mxGeometry x="1880" y="1510" width="100" height="40" as="geometry" />
        </mxCell>
        <mxCell id="9oTjwRKEW8xBZfcY-nuD-225" value="report_description" style="ellipse;whiteSpace=wrap;html=1;align=center;" vertex="1" parent="1">
          <mxGeometry x="1760" y="1510" width="100" height="40" as="geometry" />
        </mxCell>
        <mxCell id="9oTjwRKEW8xBZfcY-nuD-226" value="report_date" style="ellipse;whiteSpace=wrap;html=1;align=center;" vertex="1" parent="1">
          <mxGeometry x="1650" y="1500" width="100" height="40" as="geometry" />
        </mxCell>
        <mxCell id="9oTjwRKEW8xBZfcY-nuD-227" value="is_active" style="ellipse;whiteSpace=wrap;html=1;align=center;" vertex="1" parent="1">
          <mxGeometry x="1540" y="1480" width="100" height="40" as="geometry" />
        </mxCell>
        <mxCell id="9oTjwRKEW8xBZfcY-nuD-228" value="admin_action" style="ellipse;whiteSpace=wrap;html=1;align=center;" vertex="1" parent="1">
          <mxGeometry x="1440" y="1450" width="100" height="40" as="geometry" />
        </mxCell>
        <mxCell id="9oTjwRKEW8xBZfcY-nuD-229" value="" style="endArrow=none;html=1;rounded=0;exitX=0.5;exitY=1;exitDx=0;exitDy=0;entryX=0;entryY=0;entryDx=0;entryDy=0;" edge="1" parent="1" source="9oTjwRKEW8xBZfcY-nuD-81" target="9oTjwRKEW8xBZfcY-nuD-220">
          <mxGeometry relative="1" as="geometry">
            <mxPoint x="1920" y="1320" as="sourcePoint" />
            <mxPoint x="2080" y="1320" as="targetPoint" />
          </mxGeometry>
        </mxCell>
        <mxCell id="9oTjwRKEW8xBZfcY-nuD-230" value="" style="endArrow=none;html=1;rounded=0;exitX=0.5;exitY=1;exitDx=0;exitDy=0;entryX=0;entryY=0;entryDx=0;entryDy=0;" edge="1" parent="1" source="9oTjwRKEW8xBZfcY-nuD-81" target="9oTjwRKEW8xBZfcY-nuD-222">
          <mxGeometry relative="1" as="geometry">
            <mxPoint x="1920" y="1320" as="sourcePoint" />
            <mxPoint x="2080" y="1320" as="targetPoint" />
          </mxGeometry>
        </mxCell>
        <mxCell id="9oTjwRKEW8xBZfcY-nuD-231" value="" style="endArrow=none;html=1;rounded=0;exitX=0.5;exitY=1;exitDx=0;exitDy=0;entryX=0;entryY=0;entryDx=0;entryDy=0;" edge="1" parent="1" source="9oTjwRKEW8xBZfcY-nuD-81" target="9oTjwRKEW8xBZfcY-nuD-223">
          <mxGeometry relative="1" as="geometry">
            <mxPoint x="1920" y="1320" as="sourcePoint" />
            <mxPoint x="2080" y="1320" as="targetPoint" />
          </mxGeometry>
        </mxCell>
        <mxCell id="9oTjwRKEW8xBZfcY-nuD-232" value="" style="endArrow=none;html=1;rounded=0;exitX=0.5;exitY=1;exitDx=0;exitDy=0;entryX=0;entryY=0;entryDx=0;entryDy=0;" edge="1" parent="1" source="9oTjwRKEW8xBZfcY-nuD-81" target="9oTjwRKEW8xBZfcY-nuD-224">
          <mxGeometry relative="1" as="geometry">
            <mxPoint x="1920" y="1320" as="sourcePoint" />
            <mxPoint x="2080" y="1320" as="targetPoint" />
          </mxGeometry>
        </mxCell>
        <mxCell id="9oTjwRKEW8xBZfcY-nuD-233" value="" style="endArrow=none;html=1;rounded=0;exitX=0.5;exitY=1;exitDx=0;exitDy=0;entryX=0.5;entryY=0;entryDx=0;entryDy=0;" edge="1" parent="1" source="9oTjwRKEW8xBZfcY-nuD-81" target="9oTjwRKEW8xBZfcY-nuD-225">
          <mxGeometry relative="1" as="geometry">
            <mxPoint x="1920" y="1320" as="sourcePoint" />
            <mxPoint x="2080" y="1320" as="targetPoint" />
          </mxGeometry>
        </mxCell>
        <mxCell id="9oTjwRKEW8xBZfcY-nuD-234" value="" style="endArrow=none;html=1;rounded=0;exitX=0.5;exitY=1;exitDx=0;exitDy=0;entryX=0.5;entryY=0;entryDx=0;entryDy=0;" edge="1" parent="1" source="9oTjwRKEW8xBZfcY-nuD-81" target="9oTjwRKEW8xBZfcY-nuD-226">
          <mxGeometry relative="1" as="geometry">
            <mxPoint x="1920" y="1320" as="sourcePoint" />
            <mxPoint x="2080" y="1320" as="targetPoint" />
          </mxGeometry>
        </mxCell>
        <mxCell id="9oTjwRKEW8xBZfcY-nuD-235" value="" style="endArrow=none;html=1;rounded=0;exitX=0.5;exitY=1;exitDx=0;exitDy=0;entryX=0.5;entryY=0;entryDx=0;entryDy=0;" edge="1" parent="1" source="9oTjwRKEW8xBZfcY-nuD-81" target="9oTjwRKEW8xBZfcY-nuD-227">
          <mxGeometry relative="1" as="geometry">
            <mxPoint x="1920" y="1320" as="sourcePoint" />
            <mxPoint x="2080" y="1320" as="targetPoint" />
          </mxGeometry>
        </mxCell>
        <mxCell id="9oTjwRKEW8xBZfcY-nuD-236" value="" style="endArrow=none;html=1;rounded=0;exitX=0.5;exitY=1;exitDx=0;exitDy=0;entryX=1;entryY=0;entryDx=0;entryDy=0;" edge="1" parent="1" source="9oTjwRKEW8xBZfcY-nuD-81" target="9oTjwRKEW8xBZfcY-nuD-228">
          <mxGeometry relative="1" as="geometry">
            <mxPoint x="1920" y="1320" as="sourcePoint" />
            <mxPoint x="2080" y="1320" as="targetPoint" />
          </mxGeometry>
        </mxCell>
        <mxCell id="9oTjwRKEW8xBZfcY-nuD-237" value="admin_id" style="ellipse;whiteSpace=wrap;html=1;align=center;fontStyle=4;" vertex="1" parent="1">
          <mxGeometry x="1280" y="1370" width="100" height="40" as="geometry" />
        </mxCell>
        <mxCell id="9oTjwRKEW8xBZfcY-nuD-238" value="name" style="ellipse;whiteSpace=wrap;html=1;align=center;" vertex="1" parent="1">
          <mxGeometry x="1180" y="1380" width="100" height="40" as="geometry" />
        </mxCell>
        <mxCell id="9oTjwRKEW8xBZfcY-nuD-239" value="permissions" style="ellipse;whiteSpace=wrap;html=1;align=center;" vertex="1" parent="1">
          <mxGeometry x="1080" y="1370" width="100" height="40" as="geometry" />
        </mxCell>
        <mxCell id="9oTjwRKEW8xBZfcY-nuD-240" value="role" style="ellipse;whiteSpace=wrap;html=1;align=center;" vertex="1" parent="1">
          <mxGeometry x="1340" y="1330" width="100" height="40" as="geometry" />
        </mxCell>
        <mxCell id="9oTjwRKEW8xBZfcY-nuD-241" value="control-scope" style="ellipse;whiteSpace=wrap;html=1;align=center;" vertex="1" parent="1">
          <mxGeometry x="1010" y="1330" width="100" height="40" as="geometry" />
        </mxCell>
        <mxCell id="9oTjwRKEW8xBZfcY-nuD-242" value="assigned_task" style="ellipse;whiteSpace=wrap;html=1;align=center;" vertex="1" parent="1">
          <mxGeometry x="980" y="1290" width="100" height="40" as="geometry" />
        </mxCell>
        <mxCell id="9oTjwRKEW8xBZfcY-nuD-243" value="" style="endArrow=none;html=1;rounded=0;exitX=0.5;exitY=1;exitDx=0;exitDy=0;entryX=0.5;entryY=0;entryDx=0;entryDy=0;" edge="1" parent="1" source="9oTjwRKEW8xBZfcY-nuD-69" target="9oTjwRKEW8xBZfcY-nuD-240">
          <mxGeometry relative="1" as="geometry">
            <mxPoint x="1320" y="1320" as="sourcePoint" />
            <mxPoint x="1480" y="1320" as="targetPoint" />
          </mxGeometry>
        </mxCell>
        <mxCell id="9oTjwRKEW8xBZfcY-nuD-244" value="" style="endArrow=none;html=1;rounded=0;exitX=0.5;exitY=1;exitDx=0;exitDy=0;entryX=0.5;entryY=0;entryDx=0;entryDy=0;" edge="1" parent="1" source="9oTjwRKEW8xBZfcY-nuD-69" target="9oTjwRKEW8xBZfcY-nuD-237">
          <mxGeometry relative="1" as="geometry">
            <mxPoint x="1320" y="1320" as="sourcePoint" />
            <mxPoint x="1480" y="1320" as="targetPoint" />
          </mxGeometry>
        </mxCell>
        <mxCell id="9oTjwRKEW8xBZfcY-nuD-245" value="" style="endArrow=none;html=1;rounded=0;exitX=0.5;exitY=1;exitDx=0;exitDy=0;entryX=0.5;entryY=0;entryDx=0;entryDy=0;" edge="1" parent="1" source="9oTjwRKEW8xBZfcY-nuD-69" target="9oTjwRKEW8xBZfcY-nuD-238">
          <mxGeometry relative="1" as="geometry">
            <mxPoint x="1320" y="1320" as="sourcePoint" />
            <mxPoint x="1480" y="1320" as="targetPoint" />
          </mxGeometry>
        </mxCell>
        <mxCell id="9oTjwRKEW8xBZfcY-nuD-246" value="" style="endArrow=none;html=1;rounded=0;exitX=0.5;exitY=1;exitDx=0;exitDy=0;entryX=0.5;entryY=0;entryDx=0;entryDy=0;" edge="1" parent="1" source="9oTjwRKEW8xBZfcY-nuD-69" target="9oTjwRKEW8xBZfcY-nuD-239">
          <mxGeometry relative="1" as="geometry">
            <mxPoint x="1320" y="1320" as="sourcePoint" />
            <mxPoint x="1480" y="1320" as="targetPoint" />
          </mxGeometry>
        </mxCell>
        <mxCell id="9oTjwRKEW8xBZfcY-nuD-247" value="" style="endArrow=none;html=1;rounded=0;exitX=0.5;exitY=1;exitDx=0;exitDy=0;entryX=1;entryY=0;entryDx=0;entryDy=0;" edge="1" parent="1" source="9oTjwRKEW8xBZfcY-nuD-69" target="9oTjwRKEW8xBZfcY-nuD-241">
          <mxGeometry relative="1" as="geometry">
            <mxPoint x="1320" y="1320" as="sourcePoint" />
            <mxPoint x="1480" y="1320" as="targetPoint" />
          </mxGeometry>
        </mxCell>
        <mxCell id="9oTjwRKEW8xBZfcY-nuD-248" value="" style="endArrow=none;html=1;rounded=0;exitX=0.5;exitY=1;exitDx=0;exitDy=0;entryX=1;entryY=0;entryDx=0;entryDy=0;" edge="1" parent="1" source="9oTjwRKEW8xBZfcY-nuD-69" target="9oTjwRKEW8xBZfcY-nuD-242">
          <mxGeometry relative="1" as="geometry">
            <mxPoint x="1320" y="1320" as="sourcePoint" />
            <mxPoint x="1480" y="1320" as="targetPoint" />
          </mxGeometry>
        </mxCell>
        <mxCell id="9oTjwRKEW8xBZfcY-nuD-249" value="user_id" style="ellipse;whiteSpace=wrap;html=1;align=center;fontStyle=4;" vertex="1" parent="1">
          <mxGeometry x="810" y="700" width="100" height="40" as="geometry" />
        </mxCell>
        <mxCell id="9oTjwRKEW8xBZfcY-nuD-250" value="user_data_id" style="ellipse;whiteSpace=wrap;html=1;align=center;" vertex="1" parent="1">
          <mxGeometry x="810" y="750" width="100" height="40" as="geometry" />
        </mxCell>
        <mxCell id="9oTjwRKEW8xBZfcY-nuD-251" value="data" style="ellipse;whiteSpace=wrap;html=1;align=center;" vertex="1" parent="1">
          <mxGeometry x="830" y="800" width="100" height="40" as="geometry" />
        </mxCell>
        <mxCell id="9oTjwRKEW8xBZfcY-nuD-252" value="description" style="ellipse;whiteSpace=wrap;html=1;align=center;" vertex="1" parent="1">
          <mxGeometry x="890" y="850" width="100" height="40" as="geometry" />
        </mxCell>
        <mxCell id="9oTjwRKEW8xBZfcY-nuD-253" value="" style="endArrow=none;html=1;rounded=0;exitX=1;exitY=0.5;exitDx=0;exitDy=0;entryX=0;entryY=0.5;entryDx=0;entryDy=0;" edge="1" parent="1" source="9oTjwRKEW8xBZfcY-nuD-249" target="9oTjwRKEW8xBZfcY-nuD-61">
          <mxGeometry relative="1" as="geometry">
            <mxPoint x="1320" y="630" as="sourcePoint" />
            <mxPoint x="1480" y="630" as="targetPoint" />
          </mxGeometry>
        </mxCell>
        <mxCell id="9oTjwRKEW8xBZfcY-nuD-254" value="" style="endArrow=none;html=1;rounded=0;exitX=1;exitY=0.5;exitDx=0;exitDy=0;entryX=0;entryY=0.5;entryDx=0;entryDy=0;" edge="1" parent="1" source="9oTjwRKEW8xBZfcY-nuD-250" target="9oTjwRKEW8xBZfcY-nuD-61">
          <mxGeometry relative="1" as="geometry">
            <mxPoint x="1320" y="630" as="sourcePoint" />
            <mxPoint x="1480" y="630" as="targetPoint" />
          </mxGeometry>
        </mxCell>
        <mxCell id="9oTjwRKEW8xBZfcY-nuD-255" value="" style="endArrow=none;html=1;rounded=0;exitX=0.986;exitY=0.275;exitDx=0;exitDy=0;exitPerimeter=0;entryX=0;entryY=0.5;entryDx=0;entryDy=0;" edge="1" parent="1" source="9oTjwRKEW8xBZfcY-nuD-251" target="9oTjwRKEW8xBZfcY-nuD-61">
          <mxGeometry relative="1" as="geometry">
            <mxPoint x="1320" y="630" as="sourcePoint" />
            <mxPoint x="1480" y="630" as="targetPoint" />
          </mxGeometry>
        </mxCell>
        <mxCell id="9oTjwRKEW8xBZfcY-nuD-256" value="" style="endArrow=none;html=1;rounded=0;exitX=1.029;exitY=0.168;exitDx=0;exitDy=0;exitPerimeter=0;entryX=0;entryY=0.5;entryDx=0;entryDy=0;" edge="1" parent="1" source="9oTjwRKEW8xBZfcY-nuD-252" target="9oTjwRKEW8xBZfcY-nuD-61">
          <mxGeometry relative="1" as="geometry">
            <mxPoint x="1320" y="630" as="sourcePoint" />
            <mxPoint x="1480" y="630" as="targetPoint" />
          </mxGeometry>
        </mxCell>
      </root>
    </mxGraphModel>
  </diagram>
</mxfile>
